<?xml version="1.0" encoding="UTF-8" standalone="no"?>
<!-- Created with Inkscape (http://www.inkscape.org/) -->

<svg
   width="512"
   height="512"
   viewBox="0 0 512 512"
   version="1.1"
   id="svg1"
   inkscape:version="1.4.2 (ebf0e940d0, 2025-05-08)"
   sodipodi:docname="locked.svg"
   xmlns:inkscape="http://www.inkscape.org/namespaces/inkscape"
   xmlns:sodipodi="http://sodipodi.sourceforge.net/DTD/sodipodi-0.dtd"
   xmlns="http://www.w3.org/2000/svg"
   xmlns:svg="http://www.w3.org/2000/svg">
  <sodipodi:namedview
     id="namedview1"
     pagecolor="#ffffff"
     bordercolor="#000000"
     borderopacity="0.25"
     inkscape:showpageshadow="2"
     inkscape:pageopacity="0.0"
     inkscape:pagecheckerboard="0"
     inkscape:deskcolor="#d1d1d1"
     inkscape:document-units="px"
     inkscape:zoom="0.69743931"
     inkscape:cx="335.51306"
     inkscape:cy="367.05703"
     inkscape:window-width="1268"
     inkscape:window-height="1398"
     inkscape:window-x="0"
     inkscape:window-y="0"
     inkscape:window-maximized="1"
     inkscape:current-layer="layer1" />
  <defs
     id="defs1" />
  <g
     inkscape:label="Layer 1"
     inkscape:groupmode="layer"
     id="layer1">
    <path
       style="fill:#552200;fill-opacity:1;stroke:#000000;stroke-width:7.96816"
       d="m 312.76155,463.36958 2.37149,-395.993298 -40.3151,22.886696 -5.21723,342.768412 z"
       id="path54" />
    <path
       style="fill:#552200;fill-opacity:1;stroke:#000000;stroke-width:7.96816"
       d="M 281.45807,106.7627 312.76155,66.844021 99.328682,70.037526 94.111436,460.17611 311.33869,463.36958 279.56088,427.7089 Z"
       id="path53" />
    <rect
       style="fill:#2b0000;fill-opacity:1;stroke:#000000;stroke-width:7.96816"
       id="rect52"
       width="153.19737"
       height="324.67197"
       x="126.8378"
       y="104.10145" />
    <rect
       style="display:inline;fill:none;stroke:#000000;stroke-width:7.96816"
       id="rect48"
       width="216.75296"
       height="394.39655"
       x="95.534332"
       y="69.505272" />
    <path
       style="display:inline;fill:#be6c22;fill-opacity:1;stroke:#000000;stroke-width:7.96816"
       d="M 312.28727,70.037526 343.35361,44.223457 340.50784,462.30508 H 311.33869 Z"
       id="path51"
       sodipodi:nodetypes="ccccc" />
    <ellipse
       style="display:inline;fill:#4f3e29;fill-opacity:1;stroke:#000000;stroke-width:12.4706;stroke-dasharray:none"
       id="path1"
       cx="369.37921"
       cy="19.569433"
       rx="98.902878"
       ry="103.17511"
       inkscape:label="face"
       transform="matrix(0.85843855,0.51291642,-0.47614324,0.87936774,0,0)" />
    <g
       id="g3"
       inkscape:label="eyes"
       transform="matrix(3.9922523,2.3853678,-2.2707548,4.1937558,285.31923,-793.87809)"
       style="display:inline">
      <ellipse
         style="fill:#ffffff;fill-opacity:1;stroke:none;stroke-width:1.209;stroke-dasharray:none"
         id="path2"
         cx="97.407173"
         cy="178.151"
         rx="7.9923477"
         ry="7.9923472"
         inkscape:label="left retina" />
      <ellipse
         style="fill:#ffffff;fill-opacity:1;stroke:none;stroke-width:1.209;stroke-dasharray:none"
         id="path2-2"
         cx="116.76179"
         cy="178.24994"
         rx="7.9923477"
         ry="7.9923472"
         inkscape:label="right retina" />
      <ellipse
         style="fill:#000000;fill-opacity:1;stroke:none;stroke-width:1.1729;stroke-dasharray:none"
         id="path3"
         cx="99.296844"
         cy="178.94571"
         rx="2.079314"
         ry="2.0359948"
         inkscape:label="left pupil" />
      <ellipse
         style="display:inline;fill:#000000;fill-opacity:1;stroke:none;stroke-width:1.1729;stroke-dasharray:none"
         id="path3-0"
         cx="114.90078"
         cy="178.97238"
         rx="2.079314"
         ry="2.0359948"
         inkscape:label="right pupil" />
    </g>
    <g
       id="g4"
       inkscape:label="hairs"
       transform="matrix(3.9922523,2.3853678,-2.2707548,4.1937558,285.31923,-793.87809)"
       style="display:inline">
      <path
         style="fill:#000000;fill-opacity:1;stroke:none;stroke-width:2.74799;stroke-dasharray:none"
         d="m 87.721059,186.01197 c 0,0 -4.028671,0.0433 -6.671133,2.7291 -2.642463,2.68578 7.364238,-1.86272 7.364238,-1.86272 z"
         id="path4" />
      <path
         style="display:inline;fill:#000000;fill-opacity:1;stroke:none;stroke-width:2.74799;stroke-dasharray:none"
         d="m 89.02063,190.51714 c 0,0 -3.725439,1.8194 -3.942032,3.55216 -0.216596,1.73276 4.721775,-2.5125 4.721775,-2.5125 z"
         id="path5" />
      <path
         style="display:inline;fill:#000000;fill-opacity:1;stroke:none;stroke-width:2.74799;stroke-dasharray:none"
         d="m 94.305553,196.06198 c 0,0 -3.855395,5.71812 -1.689444,3.94203 2.165953,-1.77608 2.859058,-3.16229 2.859058,-3.16229 z"
         id="path6" />
      <path
         style="display:inline;fill:#000000;fill-opacity:1;stroke:none;stroke-width:2.74799;stroke-dasharray:none"
         d="m 97.121291,197.88138 c 0,0 -1.169615,1.90604 -1.169615,3.29225 0,1.38621 2.165951,-2.90238 2.165951,-2.90238 l -1.34289,-0.34655 z"
         id="path7" />
      <path
         style="display:inline;fill:#000000;fill-opacity:1;stroke:none;stroke-width:2.74799;stroke-dasharray:none"
         d="m 100.89005,199.18095 c 0,0 -1.212937,2.7291 -0.996341,4.37522 0.216591,1.64613 2.382551,-4.28858 2.382551,-4.28858 z"
         id="path8" />
      <path
         style="display:inline;fill:#000000;fill-opacity:1;stroke:none;stroke-width:2.74799;stroke-dasharray:none"
         d="m 104.74544,200.09065 c 0,0 0,4.63514 0.9097,4.41854 0.9097,-0.21659 0.82306,-4.72177 0.82306,-4.72177 z"
         id="path9" />
      <path
         style="display:inline;fill:#000000;fill-opacity:1;stroke:none;stroke-width:2.74799;stroke-dasharray:none"
         d="m 108.2976,199.96069 c 0,0 0.0433,4.46186 0.73643,4.67846 0.6931,0.2166 0.51983,-4.76509 0.51983,-4.76509 z"
         id="path10" />
      <path
         style="display:inline;fill:#000000;fill-opacity:1;stroke:none;stroke-width:2.74799;stroke-dasharray:none"
         d="m 112.8461,198.6178 c 0,0 1.03966,3.11897 1.73276,2.98902 0.69311,-0.12996 -0.51983,-3.03233 -0.51983,-3.03233 z"
         id="path11" />
      <path
         style="display:inline;fill:#000000;fill-opacity:1;stroke:none;stroke-width:2.74799;stroke-dasharray:none"
         d="m 115.92175,197.31823 c 0,0 0.95302,2.64246 2.33923,3.46553 1.38621,0.82306 -0.95302,-4.28859 -0.95302,-4.28859 z"
         id="path12" />
      <path
         style="display:inline;fill:#000000;fill-opacity:1;stroke:none;stroke-width:2.74799;stroke-dasharray:none"
         d="m 120.55689,194.19926 c 0,0 1.64613,5.37156 3.11897,5.24161 1.47285,-0.12996 -2.42586,-5.71812 -2.42586,-5.71812 z"
         id="path13" />
      <path
         style="display:inline;fill:#000000;fill-opacity:1;stroke:none;stroke-width:2.74799;stroke-dasharray:none"
         d="m 125.88513,187.26822 c 0,0 3.46553,4.46186 6.80109,6.10798 3.33557,1.64612 -6.10798,-6.93105 -6.10798,-6.93105 z"
         id="path14" />
      <path
         style="display:inline;fill:#000000;fill-opacity:1;stroke:none;stroke-width:2.74799;stroke-dasharray:none"
         d="m 127.57458,184.36584 c 0,0 5.71811,5.67479 6.49785,4.41854 0.77975,-1.25625 -6.80109,-4.98169 -6.80109,-4.98169 z"
         id="path15" />
      <path
         style="display:inline;fill:#000000;fill-opacity:1;stroke:none;stroke-width:2.74799;stroke-dasharray:none"
         d="m 128.311,181.63674 c 0,0 7.32092,4.46186 7.75411,3.89871 0.43319,-0.56314 -5.41488,-5.11164 -7.06101,-5.32824 -1.64612,-0.21659 -0.6931,1.42953 -0.6931,1.42953 z"
         id="path16" />
      <path
         style="display:inline;fill:#000000;fill-opacity:1;stroke:none;stroke-width:2.74799;stroke-dasharray:none"
         d="m 128.09441,176.78501 c 0,0 7.53751,0.30323 8.62049,-0.47651 1.08297,-0.77975 -7.75411,-1.25626 -8.66382,-0.9097 -0.90969,0.34655 0.0433,1.38621 0.0433,1.38621 z"
         id="path17" />
      <path
         style="display:inline;fill:#000000;fill-opacity:1;stroke:none;stroke-width:2.74799;stroke-dasharray:none"
         d="m 127.96445,172.40978 c 0,0 7.32091,0.17328 8.10066,1.68945 0.77974,1.51616 -8.44721,-0.30324 -8.44721,-0.30324 z"
         id="path18" />
      <path
         style="display:inline;fill:#000000;fill-opacity:1;stroke:none;stroke-width:2.74799;stroke-dasharray:none"
         d="m 125.88513,166.69167 c 0,0 3.07566,-1.99267 3.07566,-3.6388 0,-1.64612 -3.89872,2.64246 -3.89872,2.64246 z"
         id="path19" />
      <path
         style="display:inline;fill:#000000;fill-opacity:1;stroke:none;stroke-width:2.74799;stroke-dasharray:none"
         d="m 123.89246,163.96257 c 0,0 5.11164,-2.98901 4.28858,-3.94203 -0.82306,-0.95302 -5.11164,3.59548 -5.11164,3.59548 z"
         id="path20" />
      <path
         style="display:inline;fill:#000000;fill-opacity:1;stroke:none;stroke-width:2.74799;stroke-dasharray:none"
         d="m 121.46659,161.49339 c 0,0 3.68212,-2.12264 3.59548,-4.15863 -0.0866,-2.036 -4.02867,3.59548 -4.02867,3.59548 z"
         id="path21" />
      <path
         style="display:inline;fill:#000000;fill-opacity:1;stroke:none;stroke-width:2.74799;stroke-dasharray:none"
         d="m 119.25732,159.24079 c 0,0 3.33557,-4.50517 2.9457,-5.71811 -0.38988,-1.21293 -4.15863,5.02501 -4.15863,5.02501 z"
         id="path22" />
      <path
         style="display:inline;fill:#000000;fill-opacity:1;stroke:none;stroke-width:2.74799;stroke-dasharray:none"
         d="m 114.92542,157.24812 c 0,0 2.68578,-1.8194 2.94569,-5.19828 0.25991,-3.37889 -4.02867,4.98168 -4.02867,4.98168 v 0 z"
         id="path23" />
      <path
         style="display:inline;fill:#000000;fill-opacity:1;stroke:none;stroke-width:2.74799;stroke-dasharray:none"
         d="m 111.80645,156.20846 c 0,0 1.3862,-3.98535 0.86638,-6.32458 -0.51983,-2.33923 -2.64247,5.93471 -1.8194,6.41122 0.82306,0.47651 0.95302,-0.0866 0.95302,-0.0866 z"
         id="path24" />
      <path
         style="display:inline;fill:#000000;fill-opacity:1;stroke:none;stroke-width:2.74799;stroke-dasharray:none"
         d="m 109.12066,155.602 c 0,0 1.38621,-2.77242 1.16962,-6.10799 -0.2166,-3.33556 -1.42953,5.93471 -2.55582,5.93471 -1.1263,0 1.3862,0.17328 1.3862,0.17328 z"
         id="path25" />
      <path
         style="display:inline;fill:#000000;fill-opacity:1;stroke:none;stroke-width:2.74799;stroke-dasharray:none"
         d="m 105.43855,156.07851 c 0,-0.34656 1.34289,-5.19829 0.43319,-6.45454 -0.9097,-1.25625 -1.77608,5.80475 -0.82306,6.49786 0.95301,0.6931 0.38987,-0.0433 0.38987,-0.0433 z"
         id="path26" />
      <path
         style="display:inline;fill:#000000;fill-opacity:1;stroke:none;stroke-width:2.74799;stroke-dasharray:none"
         d="m 101.2366,156.90157 c 0,0 0.25991,-5.71812 -1.1263,-6.84441 -1.386206,-1.1263 -0.996334,6.84441 -0.0866,6.97436 0.9097,0.12996 1.21293,-0.12995 1.21293,-0.12995 z"
         id="path27" />
      <path
         style="display:inline;fill:#000000;fill-opacity:1;stroke:none;stroke-width:2.74799;stroke-dasharray:none"
         d="m 97.337887,158.02786 c 0,0 -0.389872,-2.94569 -1.86272,-4.50518 -1.472848,-1.55948 -0.129958,4.85173 0.693105,4.98169 0.823061,0.12996 0.736423,-0.64978 0.736423,-0.64978 z"
         id="path28" />
      <path
         style="display:inline;fill:#000000;fill-opacity:1;stroke:none;stroke-width:2.74799;stroke-dasharray:none"
         d="m 93.0493,160.71364 c 0,-0.21659 -0.476509,-3.72543 -3.248927,-4.41854 -2.77242,-0.6931 3.248927,4.41854 3.248927,4.41854 z"
         id="path29" />
      <path
         style="display:inline;fill:#000000;fill-opacity:1;stroke:none;stroke-width:2.74799;stroke-dasharray:none"
         d="m 90.406838,163.48606 c 0,0 -1.212932,-2.59914 -3.552161,-3.68212 -2.339229,-1.08297 2.859058,4.11531 2.859058,4.11531 z"
         id="path30" />
      <path
         style="display:inline;fill:#000000;fill-opacity:1;stroke:none;stroke-width:2.74799;stroke-dasharray:none"
         d="m 87.764378,166.60503 c 0,0 -0.736425,-3.03233 -2.122633,-3.03233 -1.38621,0 1.429528,3.50884 1.429528,3.50884 z"
         id="path31" />
      <path
         style="display:inline;fill:#000000;fill-opacity:1;stroke:none;stroke-width:2.74799;stroke-dasharray:none"
         d="m 85.078598,174.35914 c 0,0 -6.931049,-2.81574 -7.2776,-1.77608 -0.346551,1.03966 5.761432,2.90238 6.71445,2.55582 0.953022,-0.34655 0.56315,-0.77974 0.56315,-0.77974 z"
         id="path32" />
      <path
         style="display:inline;fill:#000000;fill-opacity:1;stroke:none;stroke-width:2.74799;stroke-dasharray:none"
         d="m 85.208553,178.47445 c 0,0 -5.37156,-1.12629 -6.107985,-0.43319 -0.736423,0.6931 5.41488,2.07931 5.41488,2.07931 z"
         id="path33" />
      <path
         style="display:inline;fill:#000000;fill-opacity:1;stroke:none;stroke-width:2.74799;stroke-dasharray:none"
         d="m 85.121916,181.63674 c 0,0 -5.761432,-0.30323 -5.371561,0.47651 0.389872,0.77974 5.458198,1.1263 5.458198,1.1263 z"
         id="path34" />
    </g>
    <path
       style="display:inline;fill:#000000;fill-opacity:1;stroke:none;stroke-width:12.9358;stroke-dasharray:none"
       d="m 305.29854,308.02968 c 0,0 34.54968,22.31213 33.79632,73.7567 -0.75344,51.44457 -35.03989,96.60053 -35.03989,96.60053 0,0 23.19874,-2.47467 33.24377,-0.23346 10.04503,2.24086 31.67231,30.46269 31.67231,30.46269 l -4.50987,0.087 c 0,0 -16.85302,-21.19571 -22.99989,-22.36829 -6.14689,-1.17255 -23.26888,-2.55818 -23.26888,-2.55818 0,0 16.48533,3.1312 17.3864,8.49847 0.90106,5.36728 6.96908,15.11623 6.96908,15.11623 l -4.59676,2.15378 c 0,0 -1.98394,-13.10972 -13.3352,-17.77809 -11.35123,-4.66843 -1.34772,5.26301 0.42159,10.07868 1.76914,4.81582 -1.98427,7.00862 -1.98427,7.00862 0,0 -7.03965,-20.14885 -25.38088,-26.02905 -18.34136,-5.88003 33.07136,-56.45488 33.37807,-97.26927 0.30689,-40.81444 -29.93528,-71.8026 -29.93528,-71.8026 z"
       id="path35"
       inkscape:label="right leg" />
    <path
       style="display:inline;fill:#000000;fill-opacity:1;stroke:none;stroke-width:12.9358;stroke-dasharray:none"
       d="m 208.08036,234.15378 c 0,0 -34.59914,11.29073 -63.16428,57.47026 -28.56509,46.17952 -15.23,66.3886 -15.23,66.3886 0,0 -30.926459,-21.1988 -46.321102,-23.25625 -15.394674,-2.05768 33.511272,22.40321 33.511272,22.40321 0,0 -23.979374,-1.7463 -20.306271,2.82869 3.673141,4.57506 25.485041,4.34606 25.485041,4.34606 0,0 -19.1753,10.30528 -15.05118,13.44951 4.12411,3.14417 33.0443,-13.12312 33.0443,-13.12312 0,0 3.56555,-55.38172 15.05973,-71.56331 10.78222,-15.17927 23.67583,-38.78015 53.95977,-53.59318 17.90572,-8.75839 -0.98728,-5.35047 -0.98728,-5.35047 z"
       id="path36"
       sodipodi:nodetypes="cscscscscssc"
       inkscape:label="left leg" />
    <path
       style="display:inline;fill:#be6c22;fill-opacity:1;stroke:#000000;stroke-width:7.96816"
       d="M 96.008613,462.83735 H 74.191032 V 45.021817 l 20.631846,23.152827 z"
       id="path48"
       sodipodi:nodetypes="ccccc" />
    <path
       style="fill:#be6c22;fill-opacity:1;stroke:#000000;stroke-width:7.96816"
       d="M 77.985396,40.231563 H 337.42493 L 313.23586,68.440774 H 96.008613 Z"
       id="path50"
       sodipodi:nodetypes="ccccc" />
    <path
       style="display:inline;fill:#be6c22;fill-opacity:1;stroke:#000000;stroke-width:7.96816"
       d="M 96.008613,70.037526 271.02356,15.215855 V 492.11102 L 96.008613,461.77286 Z"
       id="path52" />
    <path
       style="fill:none;fill-opacity:1;stroke:#9d4810;stroke-width:7.96816;stroke-opacity:1"
       d="m 129.92052,75.416837 c 0,0 28.84246,80.540393 2.01226,131.724923 -26.83018,51.18455 -5.36603,73.01326 -5.36603,73.01326"
       id="path58" />
    <path
       style="fill:none;fill-opacity:1;stroke:#9d4810;stroke-width:7.96816;stroke-opacity:1"
       d="m 259.16619,36.505829 c 0,0 -74.46435,125.078541 -39.36651,221.415611 35.09784,96.33708 5.21725,211.30288 5.21725,211.30288"
       id="path59" />
    <path
       style="fill:none;fill-opacity:1;stroke:#9d4810;stroke-width:7.96816;stroke-opacity:1"
       d="m 194.66203,76.424502 c 0,0 -38.41791,133.062268 -25.13764,175.642208 13.28026,42.57992 -6.64014,92.07907 -6.64014,92.07907 0,0 -17.07463,70.78914 -9.01161,92.07911 8.06302,21.28997 0,23.41896 0,23.41896"
       id="path60" />
    <path
       style="fill:none;fill-opacity:1;stroke:#9d4810;stroke-width:7.96816;stroke-opacity:1"
       d="m 116.40331,442.07963 c 0,0 16.12604,-69.72463 18.49752,-119.22381 2.37147,-49.49916 -1.89719,-15.96747 -4.74295,-65.46662 -2.84578,-49.49918 -1.42289,-44.70893 -1.42289,-44.70893"
       id="path61" />
    <path
       style="fill:none;fill-opacity:1;stroke:#9d4810;stroke-width:7.96816;stroke-opacity:1"
       d="m 122.09486,90.262978 c 0,0 -16.60034,84.095372 -13.28027,137.320252 3.32006,53.22492 -4.26866,167.65846 -4.26866,167.65846"
       id="path62" />
    <path
       style="fill:none;fill-opacity:1;stroke:#9d4810;stroke-width:7.96816;stroke-opacity:1"
       d="m 204.62223,463.90184 c 0.94859,-2.12898 23.24047,-49.49915 2.84579,-140.51376 -20.3947,-91.01459 -0.47431,-162.8682 -4.26866,-162.33597 -3.79438,0.53226 -9.9602,-67.595631 -12.33169,-75.047127"
       id="path63" />
    <path
       style="fill:none;fill-opacity:1;stroke:#9d4810;stroke-width:7.96816;stroke-opacity:1"
       d="m 143.91244,287.19513 c 0,0 14.22886,-28.20918 5.69155,-69.7246 -8.53732,-41.51545 -5.69155,-65.46664 -5.69155,-65.46664"
       id="path64" />
    <path
       style="fill:none;fill-opacity:1;stroke:#9d4810;stroke-width:7.96816;stroke-opacity:1"
       d="m 225.49123,133.90742 c 0,0 41.2637,13.83847 27.03482,117.62704 -14.22885,103.78856 -16.60032,81.96635 -16.60032,81.96635"
       id="path65" />
    <path
       style="fill:none;fill-opacity:1;stroke:#9d4810;stroke-width:7.96816;stroke-opacity:1"
       d="m 225.49123,247.27647 c 12.80597,6.91923 17.54892,1.59674 18.97181,-2.66125 1.42287,-4.258 -3.32007,-9.04822 -3.32007,-9.04822"
       id="path66" />
    <path
       style="fill:none;fill-opacity:1;stroke:#9d4810;stroke-width:7.96816;stroke-opacity:1"
       d="m 226.91411,195.64829 c 0,0 -8.06301,-77.1761 3.79437,-37.78966 11.85738,39.38642 8.06301,42.57992 8.06301,42.57992"
       id="path67" />
    <path
       style="fill:#c38b39;fill-opacity:1;stroke:#000000;stroke-width:7.96816;stroke-opacity:1"
       d="m 238.58281,227.84141 v 58.33531 c 0,0 4.3599,9.03258 8.04905,9.03258 3.68915,0 6.87523,-7.71533 6.87523,-7.71533 v -61.91071 c 0,0 -2.34761,-8.18577 -7.29444,-8.18577 -4.94684,0 -7.62984,10.44392 -7.62984,10.44392 z"
       id="path68" />
    <ellipse
       style="fill:#1a1a1a;fill-opacity:1;stroke:#000000;stroke-width:7.96816;stroke-opacity:1"
       id="path69"
       cx="245.62575"
       cy="247.03558"
       rx="6.0367937"
       ry="7.1507816" />
    <path
       style="fill:#c38b39;fill-opacity:1;stroke:#000000;stroke-width:7.96816;stroke-opacity:1"
       d="m 249.31488,241.01389 c -1.34151,0 -41.58679,-2.63449 -41.58679,-2.63449 0,0 -6.03681,-0.37637 -6.03681,4.89264 0,5.26901 3.68917,6.77444 3.68917,6.77444 l 43.59904,4.51625 z"
       id="path70" />
    <path
       style="fill:#000000;fill-opacity:1;stroke:#000000;stroke-width:7.96816;stroke-opacity:1"
       d="m 409.53117,226.59886 c 189.82359,136.99393 -166.92383,11.40419 -166.92383,11.40419 0,0 4.87971,-38.57726 -10.16944,-23.12149 -49.85445,51.20155 -22.62049,28.1037 -20.12264,25.59226 41.37382,-41.59902 18.88924,-6.23434 18.88924,-6.23434 l 13.75456,15.18345 c 0,0 1.82279,19.89017 -8.23853,16.12659 -10.06132,-3.76357 -49.59708,-19.32361 -31.0791,-12.15043 74.40748,28.82274 42.52261,2.40946 42.52261,2.40946 0,0 -9.68934,-8.33984 11.10407,-3.82354 20.79338,4.51627 159.077,61.28943 195.96851,44.72973 36.8915,-16.55972 -22.80566,-70.7551 -43.59907,-76.77683 -20.7934,-6.02172 -2.10638,6.66095 -2.10638,6.66095 z"
       id="path71"
       sodipodi:nodetypes="ccssccsscsssc" />
  </g>
</svg>
