<?xml version="1.0" encoding="UTF-8" standalone="no"?>
<!-- Created with Inkscape (http://www.inkscape.org/) -->

<svg
   width="210mm"
   height="297mm"
   viewBox="0 0 210 297"
   version="1.1"
   id="svg1"
   xml:space="preserve"
   inkscape:version="1.4.2 (ebf0e940d0, 2025-05-08)"
   sodipodi:docname="nix-flake-inkscape.svg"
   xmlns:inkscape="http://www.inkscape.org/namespaces/inkscape"
   xmlns:sodipodi="http://sodipodi.sourceforge.net/DTD/sodipodi-0.dtd"
   xmlns="http://www.w3.org/2000/svg"
   xmlns:svg="http://www.w3.org/2000/svg"><sodipodi:namedview
     id="namedview1"
     pagecolor="#ffffff"
     bordercolor="#000000"
     borderopacity="0.25"
     inkscape:showpageshadow="2"
     inkscape:pageopacity="0.0"
     inkscape:pagecheckerboard="0"
     inkscape:deskcolor="#d1d1d1"
     inkscape:document-units="mm"
     inkscape:zoom="0.76347295"
     inkscape:cx="246.24317"
     inkscape:cy="753.13736"
     inkscape:window-width="2544"
     inkscape:window-height="1398"
     inkscape:window-x="0"
     inkscape:window-y="0"
     inkscape:window-maximized="1"
     inkscape:current-layer="g180"
     showguides="false" /><defs
     id="defs1" /><g
     id="g1"
     inkscape:label="welcome-door"
     style="display:none"
     sodipodi:insensitive="true"><g
       id="g2"
       inkscape:label="door-bg"
       style="display:inline"><path
         style="display:inline;fill:#552200;fill-opacity:1;stroke:#000000;stroke-width:2.74799"
         d="M 127.08021,215.00774 127.9466,86.090278 113.21812,93.541148 111.31209,205.131 Z"
         id="path54" /><path
         style="display:inline;fill:#552200;fill-opacity:1;stroke:#000000;stroke-width:2.74799"
         d="m 115.64399,98.912708 11.43622,-12.99571 -77.97427,1.03966 -1.906037,127.011432 79.360487,1.03965 -11.60951,-11.6095 z"
         id="path53" /><rect
         style="display:inline;fill:#2b0000;fill-opacity:1;stroke:#000000;stroke-width:2.74799"
         id="rect52"
         width="55.968201"
         height="105.69846"
         x="59.155956"
         y="98.046326" /><rect
         style="display:inline;fill:none;stroke:#000000;stroke-width:2.74799"
         id="rect48"
         width="79.187202"
         height="128.39763"
         x="47.719734"
         y="86.783379" /><path
         style="display:inline;fill:#be6c22;fill-opacity:1;stroke:#000000;stroke-width:2.74799"
         d="m 126.90694,86.956658 11.34959,-8.40389 -1.03966,136.108422 h -10.65648 z"
         id="path51"
         sodipodi:nodetypes="ccccc" /></g><g
       inkscape:groupmode="layer"
       id="layer2"
       inkscape:label="dude"
       style="display:inline"><ellipse
         style="fill:#291f15;fill-opacity:1;stroke:#000000;stroke-width:4.30229;stroke-dasharray:none"
         id="path1"
         cx="175.58073"
         cy="57.24192"
         rx="35.140255"
         ry="34.562366"
         inkscape:label="face"
         transform="matrix(0.88267988,0.46997471,-0.51927704,0.85460596,0,0)" /><g
         id="g3"
         inkscape:label="eyes"
         transform="matrix(1.4585053,0.7765676,-0.82958377,1.3652967,117.0546,-194.2951)"><ellipse
           style="fill:#ffffff;fill-opacity:1;stroke:none;stroke-width:1.209;stroke-dasharray:none"
           id="path2"
           cx="97.407173"
           cy="178.151"
           rx="7.9923477"
           ry="7.9923472"
           inkscape:label="left retina" /><ellipse
           style="fill:#ffffff;fill-opacity:1;stroke:none;stroke-width:1.209;stroke-dasharray:none"
           id="path2-2"
           cx="116.76179"
           cy="178.24994"
           rx="7.9923477"
           ry="7.9923472"
           inkscape:label="right retina" /><ellipse
           style="fill:#000000;fill-opacity:1;stroke:none;stroke-width:1.1729;stroke-dasharray:none"
           id="path3"
           cx="99.296844"
           cy="178.94571"
           rx="2.079314"
           ry="2.0359948"
           inkscape:label="left pupil" /><ellipse
           style="display:inline;fill:#000000;fill-opacity:1;stroke:none;stroke-width:1.1729;stroke-dasharray:none"
           id="path3-0"
           cx="114.90078"
           cy="178.97238"
           rx="2.079314"
           ry="2.0359948"
           inkscape:label="right pupil" /></g><g
         id="g4"
         inkscape:label="hairs"
         transform="matrix(1.4585053,0.7765676,-0.82958377,1.3652967,117.0546,-194.2951)"><path
           style="fill:#000000;fill-opacity:1;stroke:none;stroke-width:2.74799;stroke-dasharray:none"
           d="m 87.721059,186.01197 c 0,0 -4.028671,0.0433 -6.671133,2.7291 -2.642463,2.68578 7.364238,-1.86272 7.364238,-1.86272 z"
           id="path4" /><path
           style="display:inline;fill:#000000;fill-opacity:1;stroke:none;stroke-width:2.74799;stroke-dasharray:none"
           d="m 89.02063,190.51714 c 0,0 -3.725439,1.8194 -3.942032,3.55216 -0.216596,1.73276 4.721775,-2.5125 4.721775,-2.5125 z"
           id="path5" /><path
           style="display:inline;fill:#000000;fill-opacity:1;stroke:none;stroke-width:2.74799;stroke-dasharray:none"
           d="m 94.305553,196.06198 c 0,0 -3.855395,5.71812 -1.689444,3.94203 2.165953,-1.77608 2.859058,-3.16229 2.859058,-3.16229 z"
           id="path6" /><path
           style="display:inline;fill:#000000;fill-opacity:1;stroke:none;stroke-width:2.74799;stroke-dasharray:none"
           d="m 97.121291,197.88138 c 0,0 -1.169615,1.90604 -1.169615,3.29225 0,1.38621 2.165951,-2.90238 2.165951,-2.90238 l -1.34289,-0.34655 z"
           id="path7" /><path
           style="display:inline;fill:#000000;fill-opacity:1;stroke:none;stroke-width:2.74799;stroke-dasharray:none"
           d="m 100.89005,199.18095 c 0,0 -1.212937,2.7291 -0.996341,4.37522 0.216591,1.64613 2.382551,-4.28858 2.382551,-4.28858 z"
           id="path8" /><path
           style="display:inline;fill:#000000;fill-opacity:1;stroke:none;stroke-width:2.74799;stroke-dasharray:none"
           d="m 104.74544,200.09065 c 0,0 0,4.63514 0.9097,4.41854 0.9097,-0.21659 0.82306,-4.72177 0.82306,-4.72177 z"
           id="path9" /><path
           style="display:inline;fill:#000000;fill-opacity:1;stroke:none;stroke-width:2.74799;stroke-dasharray:none"
           d="m 108.2976,199.96069 c 0,0 0.0433,4.46186 0.73643,4.67846 0.6931,0.2166 0.51983,-4.76509 0.51983,-4.76509 z"
           id="path10" /><path
           style="display:inline;fill:#000000;fill-opacity:1;stroke:none;stroke-width:2.74799;stroke-dasharray:none"
           d="m 112.8461,198.6178 c 0,0 1.03966,3.11897 1.73276,2.98902 0.69311,-0.12996 -0.51983,-3.03233 -0.51983,-3.03233 z"
           id="path11" /><path
           style="display:inline;fill:#000000;fill-opacity:1;stroke:none;stroke-width:2.74799;stroke-dasharray:none"
           d="m 115.92175,197.31823 c 0,0 0.95302,2.64246 2.33923,3.46553 1.38621,0.82306 -0.95302,-4.28859 -0.95302,-4.28859 z"
           id="path12" /><path
           style="display:inline;fill:#000000;fill-opacity:1;stroke:none;stroke-width:2.74799;stroke-dasharray:none"
           d="m 120.55689,194.19926 c 0,0 1.64613,5.37156 3.11897,5.24161 1.47285,-0.12996 -2.42586,-5.71812 -2.42586,-5.71812 z"
           id="path13" /><path
           style="display:inline;fill:#000000;fill-opacity:1;stroke:none;stroke-width:2.74799;stroke-dasharray:none"
           d="m 125.88513,187.26822 c 0,0 3.46553,4.46186 6.80109,6.10798 3.33557,1.64612 -6.10798,-6.93105 -6.10798,-6.93105 z"
           id="path14" /><path
           style="display:inline;fill:#000000;fill-opacity:1;stroke:none;stroke-width:2.74799;stroke-dasharray:none"
           d="m 127.57458,184.36584 c 0,0 5.71811,5.67479 6.49785,4.41854 0.77975,-1.25625 -6.80109,-4.98169 -6.80109,-4.98169 z"
           id="path15" /><path
           style="display:inline;fill:#000000;fill-opacity:1;stroke:none;stroke-width:2.74799;stroke-dasharray:none"
           d="m 128.311,181.63674 c 0,0 7.32092,4.46186 7.75411,3.89871 0.43319,-0.56314 -5.41488,-5.11164 -7.06101,-5.32824 -1.64612,-0.21659 -0.6931,1.42953 -0.6931,1.42953 z"
           id="path16" /><path
           style="display:inline;fill:#000000;fill-opacity:1;stroke:none;stroke-width:2.74799;stroke-dasharray:none"
           d="m 128.09441,176.78501 c 0,0 7.53751,0.30323 8.62049,-0.47651 1.08297,-0.77975 -7.75411,-1.25626 -8.66382,-0.9097 -0.90969,0.34655 0.0433,1.38621 0.0433,1.38621 z"
           id="path17" /><path
           style="display:inline;fill:#000000;fill-opacity:1;stroke:none;stroke-width:2.74799;stroke-dasharray:none"
           d="m 127.96445,172.40978 c 0,0 7.32091,0.17328 8.10066,1.68945 0.77974,1.51616 -8.44721,-0.30324 -8.44721,-0.30324 z"
           id="path18" /><path
           style="display:inline;fill:#000000;fill-opacity:1;stroke:none;stroke-width:2.74799;stroke-dasharray:none"
           d="m 125.88513,166.69167 c 0,0 3.07566,-1.99267 3.07566,-3.6388 0,-1.64612 -3.89872,2.64246 -3.89872,2.64246 z"
           id="path19" /><path
           style="display:inline;fill:#000000;fill-opacity:1;stroke:none;stroke-width:2.74799;stroke-dasharray:none"
           d="m 123.89246,163.96257 c 0,0 5.11164,-2.98901 4.28858,-3.94203 -0.82306,-0.95302 -5.11164,3.59548 -5.11164,3.59548 z"
           id="path20" /><path
           style="display:inline;fill:#000000;fill-opacity:1;stroke:none;stroke-width:2.74799;stroke-dasharray:none"
           d="m 121.46659,161.49339 c 0,0 3.68212,-2.12264 3.59548,-4.15863 -0.0866,-2.036 -4.02867,3.59548 -4.02867,3.59548 z"
           id="path21" /><path
           style="display:inline;fill:#000000;fill-opacity:1;stroke:none;stroke-width:2.74799;stroke-dasharray:none"
           d="m 119.25732,159.24079 c 0,0 3.33557,-4.50517 2.9457,-5.71811 -0.38988,-1.21293 -4.15863,5.02501 -4.15863,5.02501 z"
           id="path22" /><path
           style="display:inline;fill:#000000;fill-opacity:1;stroke:none;stroke-width:2.74799;stroke-dasharray:none"
           d="m 114.92542,157.24812 c 0,0 2.68578,-1.8194 2.94569,-5.19828 0.25991,-3.37889 -4.02867,4.98168 -4.02867,4.98168 v 0 z"
           id="path23" /><path
           style="display:inline;fill:#000000;fill-opacity:1;stroke:none;stroke-width:2.74799;stroke-dasharray:none"
           d="m 111.80645,156.20846 c 0,0 1.3862,-3.98535 0.86638,-6.32458 -0.51983,-2.33923 -2.64247,5.93471 -1.8194,6.41122 0.82306,0.47651 0.95302,-0.0866 0.95302,-0.0866 z"
           id="path24" /><path
           style="display:inline;fill:#000000;fill-opacity:1;stroke:none;stroke-width:2.74799;stroke-dasharray:none"
           d="m 109.12066,155.602 c 0,0 1.38621,-2.77242 1.16962,-6.10799 -0.2166,-3.33556 -1.42953,5.93471 -2.55582,5.93471 -1.1263,0 1.3862,0.17328 1.3862,0.17328 z"
           id="path25" /><path
           style="display:inline;fill:#000000;fill-opacity:1;stroke:none;stroke-width:2.74799;stroke-dasharray:none"
           d="m 105.43855,156.07851 c 0,-0.34656 1.34289,-5.19829 0.43319,-6.45454 -0.9097,-1.25625 -1.77608,5.80475 -0.82306,6.49786 0.95301,0.6931 0.38987,-0.0433 0.38987,-0.0433 z"
           id="path26" /><path
           style="display:inline;fill:#000000;fill-opacity:1;stroke:none;stroke-width:2.74799;stroke-dasharray:none"
           d="m 101.2366,156.90157 c 0,0 0.25991,-5.71812 -1.1263,-6.84441 -1.386206,-1.1263 -0.996334,6.84441 -0.0866,6.97436 0.9097,0.12996 1.21293,-0.12995 1.21293,-0.12995 z"
           id="path27" /><path
           style="display:inline;fill:#000000;fill-opacity:1;stroke:none;stroke-width:2.74799;stroke-dasharray:none"
           d="m 97.337887,158.02786 c 0,0 -0.389872,-2.94569 -1.86272,-4.50518 -1.472848,-1.55948 -0.129958,4.85173 0.693105,4.98169 0.823061,0.12996 0.736423,-0.64978 0.736423,-0.64978 z"
           id="path28" /><path
           style="display:inline;fill:#000000;fill-opacity:1;stroke:none;stroke-width:2.74799;stroke-dasharray:none"
           d="m 93.0493,160.71364 c 0,-0.21659 -0.476509,-3.72543 -3.248927,-4.41854 -2.77242,-0.6931 3.248927,4.41854 3.248927,4.41854 z"
           id="path29" /><path
           style="display:inline;fill:#000000;fill-opacity:1;stroke:none;stroke-width:2.74799;stroke-dasharray:none"
           d="m 90.406838,163.48606 c 0,0 -1.212932,-2.59914 -3.552161,-3.68212 -2.339229,-1.08297 2.859058,4.11531 2.859058,4.11531 z"
           id="path30" /><path
           style="display:inline;fill:#000000;fill-opacity:1;stroke:none;stroke-width:2.74799;stroke-dasharray:none"
           d="m 87.764378,166.60503 c 0,0 -0.736425,-3.03233 -2.122633,-3.03233 -1.38621,0 1.429528,3.50884 1.429528,3.50884 z"
           id="path31" /><path
           style="display:inline;fill:#000000;fill-opacity:1;stroke:none;stroke-width:2.74799;stroke-dasharray:none"
           d="m 85.078598,174.35914 c 0,0 -6.931049,-2.81574 -7.2776,-1.77608 -0.346551,1.03966 5.761432,2.90238 6.71445,2.55582 0.953022,-0.34655 0.56315,-0.77974 0.56315,-0.77974 z"
           id="path32" /><path
           style="display:inline;fill:#000000;fill-opacity:1;stroke:none;stroke-width:2.74799;stroke-dasharray:none"
           d="m 85.208553,178.47445 c 0,0 -5.37156,-1.12629 -6.107985,-0.43319 -0.736423,0.6931 5.41488,2.07931 5.41488,2.07931 z"
           id="path33" /><path
           style="display:inline;fill:#000000;fill-opacity:1;stroke:none;stroke-width:2.74799;stroke-dasharray:none"
           d="m 85.121916,181.63674 c 0,0 -5.761432,-0.30323 -5.371561,0.47651 0.389872,0.77974 5.458198,1.1263 5.458198,1.1263 z"
           id="path34" /></g><path
         style="fill:#000000;fill-opacity:1;stroke:none;stroke-width:4.46116;stroke-dasharray:none"
         d="m 124.35372,164.43611 c 0,0 12.62217,7.26382 12.34694,24.01184 -0.27525,16.74802 -12.80126,31.44875 -12.80126,31.44875 0,0 8.47529,-0.80564 12.14508,-0.076 3.66979,0.72952 11.57097,9.91727 11.57097,9.91727 l -1.64761,0.0283 c 0,0 -6.15698,-6.90036 -8.40264,-7.2821 -2.24567,-0.38173 -8.50091,-0.83283 -8.50091,-0.83283 0,0 6.02265,1.01938 6.35184,2.76672 0.32919,1.74734 2.54604,4.92116 2.54604,4.92116 l -1.67935,0.70117 c 0,0 -0.7248,-4.26793 -4.8718,-5.78774 -4.14699,-1.51983 -0.49237,1.7134 0.15402,3.28116 0.64633,1.56782 -0.72492,2.28169 -0.72492,2.28169 0,0 -2.57182,-6.55955 -9.2725,-8.47388 -6.70072,-1.91427 12.08209,-18.37915 12.19414,-31.66646 0.11212,-13.28733 -10.93637,-23.37567 -10.93637,-23.37567 z"
         id="path35"
         inkscape:label="right leg" /><path
         style="fill:#000000;fill-opacity:1;stroke:none;stroke-width:4.46116;stroke-dasharray:none"
         d="m 88.836618,140.38547 c 0,0 -12.640242,3.67575 -23.076054,18.70971 -10.435797,15.03396 -5.564037,21.61312 -5.564037,21.61312 0,0 -11.298484,-6.90137 -16.92267,-7.57118 -5.624197,-0.66989 12.242805,7.29347 12.242805,7.29347 0,0 -8.760479,-0.56852 -7.41857,0.92089 1.341923,1.48943 9.31055,1.41488 9.31055,1.41488 0,0 -7.005386,3.35493 -5.498707,4.37855 1.506677,1.0236 12.072205,-4.27229 12.072205,-4.27229 0,0 1.302618,-18.02978 5.501831,-23.29777 3.939111,-4.94168 8.649584,-12.62506 19.713338,-17.44751 6.541565,-2.85133 -0.360691,-1.74187 -0.360691,-1.74187 z"
         id="path36"
         sodipodi:nodetypes="cscscscscssc"
         inkscape:label="left leg" /></g><g
       inkscape:groupmode="layer"
       id="layer1"
       inkscape:label="door-fg"
       style="display:inline"><path
         style="display:inline;fill:#be6c22;fill-opacity:1;stroke:#000000;stroke-width:2.74799"
         d="M 47.893006,214.83447 H 39.922303 V 78.812678 l 7.537514,7.53751 z"
         id="path48"
         sodipodi:nodetypes="ccccc" /><path
         style="fill:#be6c22;fill-opacity:1;stroke:#000000;stroke-width:2.74799"
         d="m 41.308513,77.253188 h 94.782067 l -8.83709,9.18364 H 47.893006 Z"
         id="path50"
         sodipodi:nodetypes="ccccc" /><path
         style="display:inline;fill:#be6c22;fill-opacity:1;stroke:#000000;stroke-width:2.74799"
         d="M 47.893006,86.956658 111.83191,69.109208 V 224.36465 l -63.938904,-9.87673 z"
         id="path52" /><path
         style="fill:none;fill-opacity:1;stroke:#9d4810;stroke-width:2.74799;stroke-opacity:1"
         d="m 60.282178,88.707918 c 0,0 10.537129,26.220302 0.735148,42.883662 -9.801979,16.66337 -1.960396,23.76981 -1.960396,23.76981"
         id="path58" /><path
         style="fill:none;fill-opacity:1;stroke:#9d4810;stroke-width:2.74799;stroke-opacity:1"
         d="m 107.50001,76.040258 c 0,0 -27.20436,40.719902 -14.381924,72.082882 12.822434,31.36299 1.906037,68.79064 1.906037,68.79064"
         id="path59" /><path
         style="fill:none;fill-opacity:1;stroke:#9d4810;stroke-width:2.74799;stroke-opacity:1"
         d="m 83.934449,89.035968 c 0,0 -14.035368,43.319042 -9.183637,57.181142 4.851733,13.86209 -2.425867,29.97677 -2.425867,29.97677 0,0 -6.237941,23.04573 -3.292245,29.97678 2.945694,6.93105 0,7.62415 0,7.62415"
         id="path60" /><path
         style="fill:none;fill-opacity:1;stroke:#9d4810;stroke-width:2.74799;stroke-opacity:1"
         d="m 55.343881,208.0767 c 0,0 5.89139,-22.69918 6.757771,-38.81387 0.86638,-16.11468 -0.693106,-5.19828 -1.732762,-21.31296 -1.039656,-16.11469 -0.519827,-14.5552 -0.519827,-14.5552"
         id="path61" /><path
         style="fill:none;fill-opacity:1;stroke:#9d4810;stroke-width:2.74799;stroke-opacity:1"
         d="m 57.423197,93.541148 c 0,0 -6.064666,27.377642 -4.851734,44.705252 1.212932,17.32762 -1.559486,54.58199 -1.559486,54.58199"
         id="path62" /><path
         style="fill:none;fill-opacity:1;stroke:#9d4810;stroke-width:2.74799;stroke-opacity:1"
         d="m 87.573248,215.18102 c 0.346553,-0.6931 8.490532,-16.11468 1.039659,-45.74491 -7.450876,-29.63022 -0.173279,-53.0225 -1.559486,-52.84923 -1.386211,0.17328 -3.638799,-22.006072 -4.505182,-24.431942"
         id="path63" /><path
         style="fill:none;fill-opacity:1;stroke:#9d4810;stroke-width:2.74799;stroke-opacity:1"
         d="m 65.393899,157.65333 c 0,0 5.198285,-9.18363 2.079315,-22.69917 -3.118971,-13.51555 -2.079315,-21.31297 -2.079315,-21.31297"
         id="path64" /><path
         style="fill:none;fill-opacity:1;stroke:#9d4810;stroke-width:2.74799;stroke-opacity:1"
         d="m 95.197399,107.7498 c 0,0 15.075031,4.50518 9.876741,38.29403 -5.198284,33.78885 -6.064664,26.68453 -6.064664,26.68453"
         id="path65" /><path
         style="fill:none;fill-opacity:1;stroke:#9d4810;stroke-width:2.74799;stroke-opacity:1"
         d="m 95.197399,144.65762 c 4.678457,2.25259 6.411221,0.51983 6.931051,-0.86638 0.51982,-1.38621 -1.21294,-2.94569 -1.21294,-2.94569"
         id="path66" /><path
         style="fill:none;fill-opacity:1;stroke:#9d4810;stroke-width:2.74799;stroke-opacity:1"
         d="m 95.717228,127.84983 c 0,0 -2.945693,-25.12504 1.386211,-12.3026 4.331901,12.82243 2.945691,13.86209 2.945691,13.86209"
         id="path67" /><path
         style="fill:#c38b39;fill-opacity:1;stroke:#000000;stroke-width:2.74799;stroke-opacity:1"
         d="m 99.980198,138.33045 v 18.99133 c 0,0 1.592822,2.9406 2.940592,2.9406 1.34777,0 2.51176,-2.51176 2.51176,-2.51176 V 137.5953 c 0,0 -0.85767,-2.66492 -2.66491,-2.66492 -1.80725,0 -2.787442,3.40007 -2.787442,3.40007 z"
         id="path68" /><ellipse
         style="fill:#1a1a1a;fill-opacity:1;stroke:#000000;stroke-width:2.74799;stroke-opacity:1"
         id="path69"
         cx="102.55322"
         cy="144.57921"
         rx="2.2054455"
         ry="2.3279703" /><path
         style="fill:#c38b39;fill-opacity:1;stroke:#000000;stroke-width:2.74799;stroke-opacity:1"
         d="m 103.90099,142.61881 c -0.4901,0 -15.193069,-0.85767 -15.193069,-0.85767 0,0 -2.205447,-0.12253 -2.205447,1.59282 0,1.71535 1.347774,2.20545 1.347774,2.20545 l 15.928212,1.47029 z"
         id="path70" /><path
         style="display:inline;fill:#000000;fill-opacity:1;stroke:#000000;stroke-width:2.74799;stroke-opacity:1"
         d="m 162.43344,137.92593 c 69.349,44.59901 -60.98294,3.71269 -60.98294,3.71269 0,0 1.78272,-12.55901 -3.715243,-7.52731 -18.213525,16.6689 -8.26403,9.14929 -7.351485,8.33168 15.115258,-13.54276 6.90088,-2.02962 6.90088,-2.02962 l 5.025008,4.94304 c 0,0 0.66593,6.47534 -3.009815,5.25009 -3.675742,-1.22525 -18.119499,-6.29089 -11.354251,-3.95563 27.183576,9.38338 15.534956,0.78441 15.534956,0.78441 0,0 -3.539845,-2.71507 4.05669,-1.24477 7.59653,1.47029 58.11623,19.95306 71.59395,14.56197 13.47772,-5.39109 -8.33168,-23.03465 -15.92822,-24.99505 -7.59653,-1.9604 -0.76953,2.1685 -0.76953,2.1685 z"
         id="path71"
         sodipodi:nodetypes="ccssccsscsssc"
         inkscape:label="arm" /></g></g><g
     id="g124"
     inkscape:label="with-headphones"
     sodipodi:insensitive="true"
     style="display:none"><g
       inkscape:groupmode="layer"
       id="g146"
       inkscape:label="dude"
       style="display:inline"
       transform="rotate(-28.919536,106.72393,158.98263)"><ellipse
         style="fill:#291f15;fill-opacity:1;stroke:#000000;stroke-width:4.75108;stroke-dasharray:none"
         id="ellipse1"
         cx="166.93964"
         cy="76.29583"
         rx="38.805916"
         ry="38.167744"
         inkscape:label="face"
         transform="matrix(0.88267988,0.46997471,-0.51927704,0.85460596,0,0)" /><g
         id="g10"
         inkscape:label="eyes"
         transform="matrix(1.6106495,0.85757537,-0.91612193,1.5077178,98.677373,-216.05149)"><ellipse
           style="fill:#ffffff;fill-opacity:1;stroke:none;stroke-width:1.209;stroke-dasharray:none"
           id="ellipse7"
           cx="97.407173"
           cy="178.151"
           rx="7.9923477"
           ry="7.9923472"
           inkscape:label="left retina" /><ellipse
           style="fill:#ffffff;fill-opacity:1;stroke:none;stroke-width:1.209;stroke-dasharray:none"
           id="ellipse8"
           cx="116.76179"
           cy="178.24994"
           rx="7.9923477"
           ry="7.9923472"
           inkscape:label="right retina" /><ellipse
           style="fill:#000000;fill-opacity:1;stroke:none;stroke-width:1.1729;stroke-dasharray:none"
           id="ellipse9"
           cx="99.296844"
           cy="178.94571"
           rx="2.079314"
           ry="2.0359948"
           inkscape:label="left pupil" /><ellipse
           style="display:inline;fill:#000000;fill-opacity:1;stroke:none;stroke-width:1.1729;stroke-dasharray:none"
           id="ellipse10"
           cx="114.90078"
           cy="178.97238"
           rx="2.079314"
           ry="2.0359948"
           inkscape:label="right pupil" /></g><g
         id="g126"
         inkscape:label="hairs"
         transform="matrix(1.6106495,0.85757537,-0.91612193,1.5077178,98.677373,-216.05149)"><path
           style="fill:#000000;fill-opacity:1;stroke:none;stroke-width:2.74799;stroke-dasharray:none"
           d="m 87.721059,186.01197 c 0,0 -4.028671,0.0433 -6.671133,2.7291 -2.642463,2.68578 7.364238,-1.86272 7.364238,-1.86272 z"
           id="path77" /><path
           style="display:inline;fill:#000000;fill-opacity:1;stroke:none;stroke-width:2.74799;stroke-dasharray:none"
           d="m 89.02063,190.51714 c 0,0 -3.725439,1.8194 -3.942032,3.55216 -0.216596,1.73276 4.721775,-2.5125 4.721775,-2.5125 z"
           id="path78" /><path
           style="display:inline;fill:#000000;fill-opacity:1;stroke:none;stroke-width:2.74799;stroke-dasharray:none"
           d="m 94.305553,196.06198 c 0,0 -3.855395,5.71812 -1.689444,3.94203 2.165953,-1.77608 2.859058,-3.16229 2.859058,-3.16229 z"
           id="path79" /><path
           style="display:inline;fill:#000000;fill-opacity:1;stroke:none;stroke-width:2.74799;stroke-dasharray:none"
           d="m 97.121291,197.88138 c 0,0 -1.169615,1.90604 -1.169615,3.29225 0,1.38621 2.165951,-2.90238 2.165951,-2.90238 l -1.34289,-0.34655 z"
           id="path80" /><path
           style="display:inline;fill:#000000;fill-opacity:1;stroke:none;stroke-width:2.74799;stroke-dasharray:none"
           d="m 100.89005,199.18095 c 0,0 -1.212937,2.7291 -0.996341,4.37522 0.216591,1.64613 2.382551,-4.28858 2.382551,-4.28858 z"
           id="path81" /><path
           style="display:inline;fill:#000000;fill-opacity:1;stroke:none;stroke-width:2.74799;stroke-dasharray:none"
           d="m 104.74544,200.09065 c 0,0 0,4.63514 0.9097,4.41854 0.9097,-0.21659 0.82306,-4.72177 0.82306,-4.72177 z"
           id="path82" /><path
           style="display:inline;fill:#000000;fill-opacity:1;stroke:none;stroke-width:2.74799;stroke-dasharray:none"
           d="m 108.2976,199.96069 c 0,0 0.0433,4.46186 0.73643,4.67846 0.6931,0.2166 0.51983,-4.76509 0.51983,-4.76509 z"
           id="path83" /><path
           style="display:inline;fill:#000000;fill-opacity:1;stroke:none;stroke-width:2.74799;stroke-dasharray:none"
           d="m 112.8461,198.6178 c 0,0 1.03966,3.11897 1.73276,2.98902 0.69311,-0.12996 -0.51983,-3.03233 -0.51983,-3.03233 z"
           id="path94" /><path
           style="display:inline;fill:#000000;fill-opacity:1;stroke:none;stroke-width:2.74799;stroke-dasharray:none"
           d="m 115.92175,197.31823 c 0,0 0.95302,2.64246 2.33923,3.46553 1.38621,0.82306 -0.95302,-4.28859 -0.95302,-4.28859 z"
           id="path96" /><path
           style="display:inline;fill:#000000;fill-opacity:1;stroke:none;stroke-width:2.74799;stroke-dasharray:none"
           d="m 120.55689,194.19926 c 0,0 1.64613,5.37156 3.11897,5.24161 1.47285,-0.12996 -2.42586,-5.71812 -2.42586,-5.71812 z"
           id="path98" /><path
           style="display:inline;fill:#000000;fill-opacity:1;stroke:none;stroke-width:2.74799;stroke-dasharray:none"
           d="m 125.88513,187.26822 c 0,0 3.46553,4.46186 6.80109,6.10798 3.33557,1.64612 -6.10798,-6.93105 -6.10798,-6.93105 z"
           id="path99" /><path
           style="display:inline;fill:#000000;fill-opacity:1;stroke:none;stroke-width:2.74799;stroke-dasharray:none"
           d="m 127.57458,184.36584 c 0,0 5.71811,5.67479 6.49785,4.41854 0.77975,-1.25625 -6.80109,-4.98169 -6.80109,-4.98169 z"
           id="path101" /><path
           style="display:inline;fill:#000000;fill-opacity:1;stroke:none;stroke-width:2.74799;stroke-dasharray:none"
           d="m 128.311,181.63674 c 0,0 7.32092,4.46186 7.75411,3.89871 0.43319,-0.56314 -5.41488,-5.11164 -7.06101,-5.32824 -1.64612,-0.21659 -0.6931,1.42953 -0.6931,1.42953 z"
           id="path103" /><path
           style="display:inline;fill:#000000;fill-opacity:1;stroke:none;stroke-width:2.74799;stroke-dasharray:none"
           d="m 128.09441,176.78501 c 0,0 7.53751,0.30323 8.62049,-0.47651 1.08297,-0.77975 -7.75411,-1.25626 -8.66382,-0.9097 -0.90969,0.34655 0.0433,1.38621 0.0433,1.38621 z"
           id="path104" /><path
           style="display:inline;fill:#000000;fill-opacity:1;stroke:none;stroke-width:2.74799;stroke-dasharray:none"
           d="m 127.96445,172.40978 c 0,0 7.32091,0.17328 8.10066,1.68945 0.77974,1.51616 -8.44721,-0.30324 -8.44721,-0.30324 z"
           id="path106" /><path
           style="display:inline;fill:#000000;fill-opacity:1;stroke:none;stroke-width:2.74799;stroke-dasharray:none"
           d="m 125.88513,166.69167 c 0,0 3.07566,-1.99267 3.07566,-3.6388 0,-1.64612 -3.89872,2.64246 -3.89872,2.64246 z"
           id="path107" /><path
           style="display:inline;fill:#000000;fill-opacity:1;stroke:none;stroke-width:2.74799;stroke-dasharray:none"
           d="m 123.89246,163.96257 c 0,0 5.11164,-2.98901 4.28858,-3.94203 -0.82306,-0.95302 -5.11164,3.59548 -5.11164,3.59548 z"
           id="path109" /><path
           style="display:inline;fill:#000000;fill-opacity:1;stroke:none;stroke-width:2.74799;stroke-dasharray:none"
           d="m 121.46659,161.49339 c 0,0 3.68212,-2.12264 3.59548,-4.15863 -0.0866,-2.036 -4.02867,3.59548 -4.02867,3.59548 z"
           id="path110" /><path
           style="display:inline;fill:#000000;fill-opacity:1;stroke:none;stroke-width:2.74799;stroke-dasharray:none"
           d="m 93.191415,161.89552 c 0,-0.21659 -0.476509,-3.72543 -3.248927,-4.41854 -2.77242,-0.6931 3.248927,4.41854 3.248927,4.41854 z"
           id="path111" /><path
           style="display:inline;fill:#000000;fill-opacity:1;stroke:none;stroke-width:2.74799;stroke-dasharray:none"
           d="m 90.406838,163.48606 c 0,0 -1.212932,-2.59914 -3.552161,-3.68212 -2.339229,-1.08297 2.859058,4.11531 2.859058,4.11531 z"
           id="path112" /><path
           style="display:inline;fill:#000000;fill-opacity:1;stroke:none;stroke-width:2.74799;stroke-dasharray:none"
           d="m 87.764378,166.60503 c 0,0 -0.736425,-3.03233 -2.122633,-3.03233 -1.38621,0 1.429528,3.50884 1.429528,3.50884 z"
           id="path113" /><path
           style="display:inline;fill:#000000;fill-opacity:1;stroke:none;stroke-width:2.74799;stroke-dasharray:none"
           d="m 85.078598,174.35914 c 0,0 -6.931049,-2.81574 -7.2776,-1.77608 -0.346551,1.03966 5.761432,2.90238 6.71445,2.55582 0.953022,-0.34655 0.56315,-0.77974 0.56315,-0.77974 z"
           id="path124" /><path
           style="display:inline;fill:#000000;fill-opacity:1;stroke:none;stroke-width:2.74799;stroke-dasharray:none"
           d="m 85.208553,178.47445 c 0,0 -5.37156,-1.12629 -6.107985,-0.43319 -0.736423,0.6931 5.41488,2.07931 5.41488,2.07931 z"
           id="path125" /><path
           style="display:inline;fill:#000000;fill-opacity:1;stroke:none;stroke-width:2.74799;stroke-dasharray:none"
           d="m 85.121916,181.63674 c 0,0 -5.761432,-0.30323 -5.371561,0.47651 0.389872,0.77974 5.458198,1.1263 5.458198,1.1263 z"
           id="path126" /></g><path
         style="fill:#000000;fill-opacity:1;stroke:none;stroke-width:4.92653;stroke-dasharray:none"
         d="m 106.7379,180.10082 c 0,0 13.93885,8.02154 13.63491,26.51664 -0.30396,18.49509 -14.13662,34.72933 -14.13662,34.72933 0,0 9.35939,-0.88968 13.41199,-0.0839 4.05261,0.80562 12.778,10.95179 12.778,10.95179 l -1.81948,0.0312 c 0,0 -6.79924,-7.62017 -9.27916,-8.04173 -2.47993,-0.42155 -9.38769,-0.91971 -9.38769,-0.91971 0,0 6.65091,1.12572 7.01444,3.05533 0.36353,1.92962 2.81163,5.43452 2.81163,5.43452 l -1.85453,0.77431 c 0,0 -0.80041,-4.71314 -5.38001,-6.39149 -4.57958,-1.67837 -0.54373,1.89213 0.17009,3.62343 0.71375,1.73137 -0.80054,2.51971 -0.80054,2.51971 0,0 -2.8401,-7.24381 -10.23976,-9.35784 -7.399707,-2.11395 13.34243,-20.29637 13.46617,-34.96975 0.12382,-14.6734 -12.0772,-25.8141 -12.0772,-25.8141 z"
         id="path127"
         inkscape:label="right leg" /><path
         style="fill:#000000;fill-opacity:1;stroke:none;stroke-width:4.92653;stroke-dasharray:none"
         d="m 67.515828,153.54133 c 0,0 -13.95881,4.05919 -25.483236,20.66142 -11.524408,16.60223 -6.14445,23.86769 -6.14445,23.86769 0,0 -12.477087,-7.62128 -18.687961,-8.36097 -6.210886,-0.73977 13.519915,8.05429 13.519915,8.05429 0,0 -9.674329,-0.62782 -8.192439,1.01696 1.481906,1.6448 10.281781,1.56247 10.281781,1.56247 0,0 -7.736153,3.7049 -6.072305,4.8353 1.663846,1.13038 13.331519,-4.71796 13.331519,-4.71796 0,0 1.438501,-19.91055 6.075755,-25.72808 4.35002,-5.45717 9.551867,-13.94204 21.769738,-19.26755 7.223949,-3.14876 -0.398317,-1.92357 -0.398317,-1.92357 z"
         id="path128"
         sodipodi:nodetypes="cscscscscssc"
         inkscape:label="left leg" /></g><g
       id="g116"
       inkscape:label="headphones"
       transform="translate(0.73514852,4.6559406)"><path
         style="fill:#625e71;fill-opacity:1;stroke:#000000;stroke-width:2.74799"
         d="m 56.314754,120.60021 c 0,0 4.505179,-25.298318 45.398356,-25.298318 40.89318,0 45.57163,28.244018 45.57163,28.244018 l -8.31725,0.86638 c 0,0 -0.69311,-24.25867 -37.25438,-24.431943 C 65.15184,99.807072 60.819933,120.77349 60.819933,120.77349 Z"
         id="path115" /><path
         style="display:inline;fill:#4d4db2;fill-opacity:1;stroke:#000000;stroke-width:2.74799"
         d="m 59.95355,119.214 c 0,0 -24.085384,-2.42586 -21.832798,14.20865 2.252594,16.63451 2.772421,24.60521 17.154342,24.60521 14.381926,1e-5 10.223298,-35.69488 8.317261,-37.42764 -1.90604,-1.73277 -3.638805,-1.38622 -3.638805,-1.38622 z"
         id="path114" /><path
         style="display:inline;fill:#4d4db2;fill-opacity:1;stroke:#000000;stroke-width:2.77878"
         d="m 141.52476,122.27228 c 0,0 24.64762,-2.42394 22.34245,14.19742 -2.30518,16.62136 -2.83714,24.58576 -17.55479,24.58576 -14.71764,1e-5 -10.46194,-35.66666 -8.51141,-37.39806 1.95053,-1.73139 3.72375,-1.38512 3.72375,-1.38512 z"
         id="path114-3" /><circle
         style="fill:#625e71;fill-opacity:1;stroke:#000000;stroke-width:2.74799"
         id="path116"
         cx="143.47649"
         cy="129.38614"
         r="2.3279703" /><circle
         style="fill:#625e71;fill-opacity:1;stroke:#000000;stroke-width:2.74799"
         id="path116-1"
         cx="58.776428"
         cy="125.66249"
         r="2.3279703" /></g><g
       id="g123"
       inkscape:label="waves"><path
         style="fill:none;fill-opacity:1;stroke:#000000;stroke-width:1.5;stroke-dasharray:none"
         d="m 154.62624,118.35891 c 0,0 13.96782,-0.9802 17.64356,9.55693"
         id="path117" /><path
         style="fill:none;fill-opacity:1;stroke:#ffffff;stroke-width:1.5;stroke-dasharray:none;stroke-opacity:1"
         d="m 153.60421,119.37069 c 0,0 13.96782,-0.9802 17.64356,9.55693"
         id="path117-9" /><path
         style="fill:none;fill-opacity:1;stroke:#000000;stroke-width:1.5;stroke-dasharray:none"
         d="m 165.65346,126.20049 c 0,0 8.08664,5.63614 6.61634,16.90842"
         id="path118" /><path
         style="fill:none;fill-opacity:1;stroke:#ffffff;stroke-width:1.5;stroke-dasharray:none;stroke-opacity:1"
         d="m 164.6085,127.23139 c 0,0 8.08664,5.63614 6.61634,16.90842"
         id="path118-7" /><path
         style="fill:none;fill-opacity:1;stroke:#000000;stroke-width:1.5;stroke-dasharray:none"
         d="m 155.11633,170.06435 c 0,0 14.45793,2.69555 17.15347,-11.76237"
         id="path119" /><path
         style="fill:none;fill-opacity:1;stroke:#ffffff;stroke-width:1.5;stroke-dasharray:none;stroke-opacity:1"
         d="m 154.46425,168.87245 c 0,0 14.45793,2.69555 17.15347,-11.76237"
         id="path119-3" /><path
         style="fill:none;fill-opacity:1;stroke:#000000;stroke-width:1.5;stroke-dasharray:none"
         d="m 168.10396,146.29455 c 0,0 1.22525,7.10644 -0.9802,14.94802"
         id="path120" /><path
         style="fill:none;fill-opacity:1;stroke:#ffffff;stroke-width:1.5;stroke-dasharray:none;stroke-opacity:1"
         d="m 166.74823,146.414 c 0,0 1.22525,7.10644 -0.9802,14.94802"
         id="path120-3" /><path
         style="fill:none;fill-opacity:1;stroke:#000000;stroke-width:1.5;stroke-dasharray:none"
         d="m 47.539602,114.43812 c 0,0 -14.702969,5.14604 -15.683166,10.29208"
         id="path121" /><path
         style="fill:none;fill-opacity:1;stroke:#ffffff;stroke-width:1.5;stroke-dasharray:none;stroke-opacity:1"
         d="m 48.069274,115.52772 c 0,0 -14.702969,5.14604 -15.683166,10.29208"
         id="path121-0" /><path
         style="fill:none;fill-opacity:1;stroke:#000000;stroke-width:1.5;stroke-dasharray:none"
         d="m 38.962872,168.10396 c -1.225248,-3.4307 -10.537129,-13.23267 -7.841586,-23.7698"
         id="path122" /><path
         style="fill:none;fill-opacity:1;stroke:#ffffff;stroke-width:1.5;stroke-dasharray:none;stroke-opacity:1"
         d="m 40.417556,167.95956 c -1.225248,-3.4307 -10.537129,-13.23267 -7.841586,-23.7698"
         id="path122-7" /><path
         style="fill:none;fill-opacity:1;stroke:#000000;stroke-width:1.5;stroke-dasharray:none"
         d="m 25.975247,130.85644 c 0,0 -9.55693,9.31188 -1.960396,22.54455"
         id="path123" /><path
         style="fill:none;fill-opacity:1;stroke:#ffffff;stroke-width:1.5;stroke-dasharray:none;stroke-opacity:1"
         d="m 26.993932,131.08467 c 0,0 -9.55693,9.31188 -1.960396,22.54455"
         id="path123-9" /></g></g><g
     inkscape:groupmode="layer"
     id="g200"
     inkscape:label="dude copy 1"
     style="display:inline"><ellipse
       style="fill:#4f3e29;fill-opacity:1;stroke:#000000;stroke-width:4.30229;stroke-dasharray:none"
       id="ellipse146"
       cx="102.092"
       cy="150.12787"
       rx="35.140255"
       ry="34.562366"
       inkscape:label="face"
       transform="matrix(0.99788182,-0.06505287,0.00835609,0.99996509,0,0)" /><g
       id="g150"
       inkscape:label="eyes"
       transform="matrix(1.6488604,-0.10749079,0.01334947,1.5975187,-75.309711,-129.15107)"><ellipse
         style="fill:#ffffff;fill-opacity:1;stroke:none;stroke-width:1.209;stroke-dasharray:none"
         id="ellipse147"
         cx="97.407173"
         cy="178.151"
         rx="7.9923477"
         ry="7.9923472"
         inkscape:label="left retina" /><ellipse
         style="fill:#ffffff;fill-opacity:1;stroke:none;stroke-width:1.209;stroke-dasharray:none"
         id="ellipse148"
         cx="116.76179"
         cy="178.24994"
         rx="7.9923477"
         ry="7.9923472"
         inkscape:label="right retina" /><ellipse
         style="fill:#000000;fill-opacity:1;stroke:none;stroke-width:1.1729;stroke-dasharray:none"
         id="ellipse149"
         cx="99.296844"
         cy="178.94571"
         rx="2.079314"
         ry="2.0359948"
         inkscape:label="left pupil" /><ellipse
         style="display:inline;fill:#000000;fill-opacity:1;stroke:none;stroke-width:1.1729;stroke-dasharray:none"
         id="ellipse150"
         cx="114.90078"
         cy="178.97238"
         rx="2.079314"
         ry="2.0359948"
         inkscape:label="right pupil" /></g><g
       id="g180"
       inkscape:label="hairs"
       transform="matrix(1.6488604,-0.10749079,0.01334947,1.5975187,-75.309711,-129.15107)"><path
         style="fill:#000000;fill-opacity:1;stroke:none;stroke-width:2.74799;stroke-dasharray:none"
         d="m 87.721059,186.01197 c 0,0 -4.028671,0.0433 -6.671133,2.7291 -2.642463,2.68578 7.364238,-1.86272 7.364238,-1.86272 z"
         id="path150" /><path
         style="display:inline;fill:#000000;fill-opacity:1;stroke:none;stroke-width:2.74799;stroke-dasharray:none"
         d="m 89.02063,190.51714 c 0,0 -3.725439,1.8194 -3.942032,3.55216 -0.216596,1.73276 4.721775,-2.5125 4.721775,-2.5125 z"
         id="path151" /><path
         style="display:inline;fill:#000000;fill-opacity:1;stroke:none;stroke-width:2.74799;stroke-dasharray:none"
         d="m 94.305553,196.06198 c 0,0 -3.855395,5.71812 -1.689444,3.94203 2.165953,-1.77608 2.859058,-3.16229 2.859058,-3.16229 z"
         id="path152" /><path
         style="display:inline;fill:#000000;fill-opacity:1;stroke:none;stroke-width:2.74799;stroke-dasharray:none"
         d="m 97.121291,197.88138 c 0,0 -1.169615,1.90604 -1.169615,3.29225 0,1.38621 2.165951,-2.90238 2.165951,-2.90238 l -1.34289,-0.34655 z"
         id="path153" /><path
         style="display:inline;fill:#000000;fill-opacity:1;stroke:none;stroke-width:2.74799;stroke-dasharray:none"
         d="m 100.89005,199.18095 c 0,0 -1.212937,2.7291 -0.996341,4.37522 0.216591,1.64613 2.382551,-4.28858 2.382551,-4.28858 z"
         id="path154" /><path
         style="display:inline;fill:#000000;fill-opacity:1;stroke:none;stroke-width:2.74799;stroke-dasharray:none"
         d="m 104.74544,200.09065 c 0,0 0,4.63514 0.9097,4.41854 0.9097,-0.21659 0.82306,-4.72177 0.82306,-4.72177 z"
         id="path155" /><path
         style="display:inline;fill:#000000;fill-opacity:1;stroke:none;stroke-width:2.74799;stroke-dasharray:none"
         d="m 108.2976,199.96069 c 0,0 0.0433,4.46186 0.73643,4.67846 0.6931,0.2166 0.51983,-4.76509 0.51983,-4.76509 z"
         id="path156" /><path
         style="display:inline;fill:#000000;fill-opacity:1;stroke:none;stroke-width:2.74799;stroke-dasharray:none"
         d="m 112.8461,198.6178 c 0,0 1.03966,3.11897 1.73276,2.98902 0.69311,-0.12996 -0.51983,-3.03233 -0.51983,-3.03233 z"
         id="path157" /><path
         style="display:inline;fill:#000000;fill-opacity:1;stroke:none;stroke-width:2.74799;stroke-dasharray:none"
         d="m 115.92175,197.31823 c 0,0 0.95302,2.64246 2.33923,3.46553 1.38621,0.82306 -0.95302,-4.28859 -0.95302,-4.28859 z"
         id="path158" /><path
         style="display:inline;fill:#000000;fill-opacity:1;stroke:none;stroke-width:2.74799;stroke-dasharray:none"
         d="m 120.55689,194.19926 c 0,0 1.64613,5.37156 3.11897,5.24161 1.47285,-0.12996 -2.42586,-5.71812 -2.42586,-5.71812 z"
         id="path159" /><path
         style="display:inline;fill:#000000;fill-opacity:1;stroke:none;stroke-width:2.74799;stroke-dasharray:none"
         d="m 125.88513,187.26822 c 0,0 3.46553,4.46186 6.80109,6.10798 3.33557,1.64612 -6.10798,-6.93105 -6.10798,-6.93105 z"
         id="path160" /><path
         style="display:inline;fill:#000000;fill-opacity:1;stroke:none;stroke-width:2.74799;stroke-dasharray:none"
         d="m 127.57458,184.36584 c 0,0 5.71811,5.67479 6.49785,4.41854 0.77975,-1.25625 -6.80109,-4.98169 -6.80109,-4.98169 z"
         id="path161" /><path
         style="display:inline;fill:#000000;fill-opacity:1;stroke:none;stroke-width:2.74799;stroke-dasharray:none"
         d="m 128.311,181.63674 c 0,0 7.32092,4.46186 7.75411,3.89871 0.43319,-0.56314 -5.41488,-5.11164 -7.06101,-5.32824 -1.64612,-0.21659 -0.6931,1.42953 -0.6931,1.42953 z"
         id="path162" /><path
         style="display:inline;fill:#000000;fill-opacity:1;stroke:none;stroke-width:2.74799;stroke-dasharray:none"
         d="m 128.09441,176.78501 c 0,0 7.53751,0.30323 8.62049,-0.47651 1.08297,-0.77975 -7.75411,-1.25626 -8.66382,-0.9097 -0.90969,0.34655 0.0433,1.38621 0.0433,1.38621 z"
         id="path163" /><path
         style="display:inline;fill:#000000;fill-opacity:1;stroke:none;stroke-width:2.74799;stroke-dasharray:none"
         d="m 127.96445,172.40978 c 0,0 7.32091,0.17328 8.10066,1.68945 0.77974,1.51616 -8.44721,-0.30324 -8.44721,-0.30324 z"
         id="path164" /><path
         style="display:inline;fill:#000000;fill-opacity:1;stroke:none;stroke-width:2.74799;stroke-dasharray:none"
         d="m 125.88513,166.69167 c 0,0 3.07566,-1.99267 3.07566,-3.6388 0,-1.64612 -3.89872,2.64246 -3.89872,2.64246 z"
         id="path165" /><path
         style="display:inline;fill:#000000;fill-opacity:1;stroke:none;stroke-width:2.74799;stroke-dasharray:none"
         d="m 123.89246,163.96257 c 0,0 5.11164,-2.98901 4.28858,-3.94203 -0.82306,-0.95302 -5.11164,3.59548 -5.11164,3.59548 z"
         id="path166" /><path
         style="display:inline;fill:#000000;fill-opacity:1;stroke:none;stroke-width:2.74799;stroke-dasharray:none"
         d="m 121.46659,161.49339 c 0,0 3.68212,-2.12264 3.59548,-4.15863 -0.0866,-2.036 -4.02867,3.59548 -4.02867,3.59548 z"
         id="path167" /><path
         style="display:inline;fill:#000000;fill-opacity:1;stroke:none;stroke-width:2.74799;stroke-dasharray:none"
         d="m 119.25732,159.24079 c 0,0 3.33557,-4.50517 2.9457,-5.71811 -0.38988,-1.21293 -4.15863,5.02501 -4.15863,5.02501 z"
         id="path168" /><path
         style="display:inline;fill:#000000;fill-opacity:1;stroke:none;stroke-width:2.74799;stroke-dasharray:none"
         d="m 114.92542,157.24812 c 0,0 2.68578,-1.8194 2.94569,-5.19828 0.25991,-3.37889 -4.02867,4.98168 -4.02867,4.98168 v 0 z"
         id="path169" /><path
         style="display:inline;fill:#000000;fill-opacity:1;stroke:none;stroke-width:2.74799;stroke-dasharray:none"
         d="m 111.80645,156.20846 c 0,0 1.3862,-3.98535 0.86638,-6.32458 -0.51983,-2.33923 -2.64247,5.93471 -1.8194,6.41122 0.82306,0.47651 0.95302,-0.0866 0.95302,-0.0866 z"
         id="path170" /><path
         style="display:inline;fill:#000000;fill-opacity:1;stroke:none;stroke-width:2.74799;stroke-dasharray:none"
         d="m 109.12066,155.602 c 0,0 1.38621,-2.77242 1.16962,-6.10799 -0.2166,-3.33556 -1.42953,5.93471 -2.55582,5.93471 -1.1263,0 1.3862,0.17328 1.3862,0.17328 z"
         id="path171" /><path
         style="display:inline;fill:#000000;fill-opacity:1;stroke:none;stroke-width:2.74799;stroke-dasharray:none"
         d="m 105.43855,156.07851 c 0,-0.34656 1.34289,-5.19829 0.43319,-6.45454 -0.9097,-1.25625 -1.77608,5.80475 -0.82306,6.49786 0.95301,0.6931 0.38987,-0.0433 0.38987,-0.0433 z"
         id="path172" /><path
         style="display:inline;fill:#000000;fill-opacity:1;stroke:none;stroke-width:2.74799;stroke-dasharray:none"
         d="m 101.2366,156.90157 c 0,0 0.25991,-5.71812 -1.1263,-6.84441 -1.386206,-1.1263 -0.996334,6.84441 -0.0866,6.97436 0.9097,0.12996 1.21293,-0.12995 1.21293,-0.12995 z"
         id="path173" /><path
         style="display:inline;fill:#000000;fill-opacity:1;stroke:none;stroke-width:2.74799;stroke-dasharray:none"
         d="m 97.337887,158.02786 c 0,0 -0.389872,-2.94569 -1.86272,-4.50518 -1.472848,-1.55948 -0.129958,4.85173 0.693105,4.98169 0.823061,0.12996 0.736423,-0.64978 0.736423,-0.64978 z"
         id="path174" /><path
         style="display:inline;fill:#000000;fill-opacity:1;stroke:none;stroke-width:2.74799;stroke-dasharray:none"
         d="m 93.0493,160.71364 c 0,-0.21659 -0.476509,-3.72543 -3.248927,-4.41854 -2.77242,-0.6931 3.248927,4.41854 3.248927,4.41854 z"
         id="path175" /><path
         style="display:inline;fill:#000000;fill-opacity:1;stroke:none;stroke-width:2.74799;stroke-dasharray:none"
         d="m 90.406838,163.48606 c 0,0 -1.212932,-2.59914 -3.552161,-3.68212 -2.339229,-1.08297 2.859058,4.11531 2.859058,4.11531 z"
         id="path176" /><path
         style="display:inline;fill:#000000;fill-opacity:1;stroke:none;stroke-width:2.74799;stroke-dasharray:none"
         d="m 87.764378,166.60503 c 0,0 -0.736425,-3.03233 -2.122633,-3.03233 -1.38621,0 1.429528,3.50884 1.429528,3.50884 z"
         id="path177" /><path
         style="display:inline;fill:#000000;fill-opacity:1;stroke:none;stroke-width:2.74799;stroke-dasharray:none"
         d="m 85.078598,174.35914 c 0,0 -6.931049,-2.81574 -7.2776,-1.77608 -0.346551,1.03966 5.761432,2.90238 6.71445,2.55582 0.953022,-0.34655 0.56315,-0.77974 0.56315,-0.77974 z"
         id="path178" /><path
         style="display:inline;fill:#000000;fill-opacity:1;stroke:none;stroke-width:2.74799;stroke-dasharray:none"
         d="m 85.208553,178.47445 c 0,0 -5.37156,-1.12629 -6.107985,-0.43319 -0.736423,0.6931 5.41488,2.07931 5.41488,2.07931 z"
         id="path179" /><path
         style="display:inline;fill:#000000;fill-opacity:1;stroke:none;stroke-width:2.74799;stroke-dasharray:none"
         d="m 85.121916,181.63674 c 0,0 -5.761432,-0.30323 -5.371561,0.47651 0.389872,0.77974 5.458198,1.1263 5.458198,1.1263 z"
         id="path180" /><path
         style="fill:#000000;stroke:none;stroke-width:0.92397;stroke-opacity:1"
         d="m 87.953123,170.96556 c 0,0 -7.311393,-5.87342 -7.552078,-3.615 -0.240686,2.2584 7.366336,4.50586 7.366336,4.50586 z"
         id="path200" /><path
         style="fill:#000000;stroke:none;stroke-width:0.92397;stroke-opacity:1"
         d="m 126.65849,169.38539 c 0,0 5.35403,-2.53538 5.74733,-1.43323 0.3933,1.10214 -5.40321,2.51344 -5.40321,2.51344 z"
         id="path201" /></g><path
       style="fill:#000000;fill-opacity:1;stroke:none;stroke-width:4.46116;stroke-dasharray:none"
       d="m 119.40452,171.00146 c 0,0 14.39623,2.19788 20.20688,17.90802 5.81062,15.71014 -0.53904,33.95005 -0.53904,33.95005 0,0 7.60776,-3.8212 11.2926,-4.47055 3.68481,-0.64946 14.37769,5.05192 14.37769,5.05192 l -1.52545,0.62324 c 0,0 -8.23852,-4.20122 -10.46994,-3.7435 -2.23141,0.45772 -8.22519,2.3033 -8.22519,2.3033 0,0 5.98285,-1.23164 6.92267,0.27776 0.93983,1.50939 4.15586,3.66455 4.15586,3.66455 l -1.31127,1.26191 c 0,0 -2.22168,-3.71546 -6.63757,-3.62973 -4.41589,0.0857 0.16177,1.77538 1.3322,3.00249 1.17039,1.22719 0.15088,2.38932 0.15088,2.38932 0,0 -4.7734,-5.18232 -11.71244,-4.53922 -6.93905,0.64318 4.60335,-21.50766 -0.10571,-33.93303 -4.709,-12.42542 -18.66166,-17.82607 -18.66166,-17.82607 z"
       id="path181"
       inkscape:label="right leg" /><path
       style="fill:#000000;fill-opacity:1;stroke:none;stroke-width:4.46116;stroke-dasharray:none"
       d="m 76.874194,170.26069 c 0,0 -8.812286,9.77908 -9.771322,28.05492 -0.959023,18.27583 6.646398,21.30519 6.646398,21.30519 0,0 -13.239271,0.0797 -18.37375,2.47079 -5.134531,2.39102 14.248569,-0.24343 14.248569,-0.24343 0,0 -7.747753,4.12814 -5.822787,4.68811 1.924989,0.55998 8.660968,-3.69809 8.660968,-3.69809 0,0 -4.190203,6.54012 -2.370336,6.61732 1.819856,0.0772 8.015302,-9.98727 8.015302,-9.98727 0,0 -8.383343,-16.01528 -7.586088,-22.70479 0.747878,-6.27514 0.708364,-15.28743 7.576639,-25.21162 4.060941,-5.86778 -1.223593,-1.29113 -1.223593,-1.29113 z"
       id="path182"
       sodipodi:nodetypes="cscscscscssc"
       inkscape:label="left leg" /></g></svg>
