<?xml version="1.0" encoding="UTF-8" standalone="no"?>
<!-- Created with Inkscape (http://www.inkscape.org/) -->

<svg
   width="512"
   height="512"
   viewBox="0 0 512 512"
   version="1.1"
   id="svg1"
   inkscape:version="1.4.2 (ebf0e940d0, 2025-05-08)"
   sodipodi:docname="nix-flake.svg"
   xmlns:inkscape="http://www.inkscape.org/namespaces/inkscape"
   xmlns:sodipodi="http://sodipodi.sourceforge.net/DTD/sodipodi-0.dtd"
   xmlns:xlink="http://www.w3.org/1999/xlink"
   xmlns="http://www.w3.org/2000/svg"
   xmlns:svg="http://www.w3.org/2000/svg">
  <sodipodi:namedview
     id="namedview1"
     pagecolor="#ffffff"
     bordercolor="#000000"
     borderopacity="0.25"
     inkscape:showpageshadow="2"
     inkscape:pageopacity="0.0"
     inkscape:pagecheckerboard="0"
     inkscape:deskcolor="#d1d1d1"
     inkscape:document-units="px"
     inkscape:zoom="1.3948786"
     inkscape:cx="306.83674"
     inkscape:cy="303.2522"
     inkscape:window-width="1268"
     inkscape:window-height="1398"
     inkscape:window-x="0"
     inkscape:window-y="0"
     inkscape:window-maximized="1"
     inkscape:current-layer="layer1" />
  <defs
     id="defs1">
    <linearGradient
       inkscape:collect="always"
       xlink:href="#linearGradient5562"
       id="linearGradient4328"
       gradientUnits="userSpaceOnUse"
       gradientTransform="matrix(0.18974816,0,0,0.18349998,108.00809,21.324936)"
       x1="200.59668"
       y1="351.41116"
       x2="290.08701"
       y2="506.18814" />
    <linearGradient
       inkscape:collect="always"
       id="linearGradient5562">
      <stop
         style="stop-color:#699ad7;stop-opacity:1"
         offset="0"
         id="stop5564" />
      <stop
         id="stop5566"
         offset="0.24345198"
         style="stop-color:#7eb1dd;stop-opacity:1" />
      <stop
         style="stop-color:#7ebae4;stop-opacity:1"
         offset="1"
         id="stop5568" />
    </linearGradient>
    <linearGradient
       inkscape:collect="always"
       xlink:href="#linearGradient5053"
       id="linearGradient4330"
       gradientUnits="userSpaceOnUse"
       gradientTransform="matrix(0.18974816,0,0,0.18349998,276.35913,-75.815893)"
       x1="-584.19934"
       y1="782.33563"
       x2="-496.29703"
       y2="937.71399" />
    <linearGradient
       inkscape:collect="always"
       id="linearGradient5053">
      <stop
         style="stop-color:#415e9a;stop-opacity:1"
         offset="0"
         id="stop5055" />
      <stop
         id="stop5057"
         offset="0.23168644"
         style="stop-color:#4a6baf;stop-opacity:1" />
      <stop
         style="stop-color:#5277c3;stop-opacity:1"
         offset="1"
         id="stop5059" />
    </linearGradient>
    <linearGradient
       inkscape:collect="always"
       xlink:href="#linearGradient5053"
       id="linearGradient4330-7"
       gradientUnits="userSpaceOnUse"
       gradientTransform="matrix(0.36031215,0,0,0.3484475,414.89946,-191.38902)"
       x1="-584.19934"
       y1="782.33563"
       x2="-496.29703"
       y2="937.71399" />
    <linearGradient
       inkscape:collect="always"
       xlink:href="#linearGradient5053"
       id="linearGradient4330-2"
       gradientUnits="userSpaceOnUse"
       gradientTransform="matrix(0.1892725,0,0,0.2033609,393.32791,-66.856975)"
       x1="-584.19934"
       y1="782.33563"
       x2="-496.29703"
       y2="937.71399" />
    <linearGradient
       inkscape:collect="always"
       xlink:href="#linearGradient5562"
       id="linearGradient1"
       gradientUnits="userSpaceOnUse"
       gradientTransform="matrix(0.1892725,0,0,0.2033609,232.55849,11.713496)"
       x1="200.59668"
       y1="351.41116"
       x2="290.08701"
       y2="506.18814" />
    <linearGradient
       inkscape:collect="always"
       xlink:href="#linearGradient5562"
       id="linearGradient2"
       gradientUnits="userSpaceOnUse"
       gradientTransform="matrix(0.36031215,0,0,0.3484475,128.7952,-39.39992)"
       x1="200.59668"
       y1="351.41116"
       x2="290.08701"
       y2="506.18814" />
  </defs>
  <g
     inkscape:label="Layer 1"
     inkscape:groupmode="layer"
     id="layer1">
    <ellipse
       style="display:inline;fill:#4f3e29;fill-opacity:1;stroke:#000000;stroke-width:9.84204;stroke-dasharray:none"
       id="path1"
       cx="249.8541"
       cy="313.75409"
       rx="80.37809"
       ry="79.074837"
       inkscape:label="face" />
    <g
       id="g3"
       inkscape:label="eyes"
       style="display:inline"
       transform="matrix(3.7795276,0,0,3.6550722,-153.72506,-336.28108)">
      <ellipse
         style="fill:#ffffff;fill-opacity:1;stroke:none;stroke-width:1.209;stroke-dasharray:none"
         id="path2"
         cx="97.407173"
         cy="178.151"
         rx="7.9923477"
         ry="7.9923472"
         inkscape:label="left retina" />
      <ellipse
         style="fill:#ffffff;fill-opacity:1;stroke:none;stroke-width:1.209;stroke-dasharray:none"
         id="path2-2"
         cx="116.76179"
         cy="178.24994"
         rx="7.9923477"
         ry="7.9923472"
         inkscape:label="right retina" />
      <ellipse
         style="fill:#000000;fill-opacity:1;stroke:none;stroke-width:1.1729;stroke-dasharray:none"
         id="path3"
         cx="99.296844"
         cy="178.94571"
         rx="2.079314"
         ry="2.0359948"
         inkscape:label="left pupil" />
      <ellipse
         style="display:inline;fill:#000000;fill-opacity:1;stroke:none;stroke-width:1.1729;stroke-dasharray:none"
         id="path3-0"
         cx="114.90078"
         cy="178.97238"
         rx="2.079314"
         ry="2.0359948"
         inkscape:label="right pupil" />
    </g>
    <g
       id="g4"
       inkscape:label="hairs"
       style="display:inline"
       transform="matrix(3.7795276,0,0,3.6550722,-153.72506,-336.28108)">
      <path
         style="fill:#000000;fill-opacity:1;stroke:none;stroke-width:2.74799;stroke-dasharray:none"
         d="m 87.721059,186.01197 c 0,0 -4.028671,0.0433 -6.671133,2.7291 -2.642463,2.68578 7.364238,-1.86272 7.364238,-1.86272 z"
         id="path4" />
      <path
         style="display:inline;fill:#000000;fill-opacity:1;stroke:none;stroke-width:2.74799;stroke-dasharray:none"
         d="m 89.02063,190.51714 c 0,0 -3.725439,1.8194 -3.942032,3.55216 -0.216596,1.73276 4.721775,-2.5125 4.721775,-2.5125 z"
         id="path5" />
      <path
         style="display:inline;fill:#000000;fill-opacity:1;stroke:none;stroke-width:2.74799;stroke-dasharray:none"
         d="m 94.305553,196.06198 c 0,0 -3.855395,5.71812 -1.689444,3.94203 2.165953,-1.77608 2.859058,-3.16229 2.859058,-3.16229 z"
         id="path6" />
      <path
         style="display:inline;fill:#000000;fill-opacity:1;stroke:none;stroke-width:2.74799;stroke-dasharray:none"
         d="m 97.121291,197.88138 c 0,0 -1.169615,1.90604 -1.169615,3.29225 0,1.38621 2.165951,-2.90238 2.165951,-2.90238 l -1.34289,-0.34655 z"
         id="path7" />
      <path
         style="display:inline;fill:#000000;fill-opacity:1;stroke:none;stroke-width:2.74799;stroke-dasharray:none"
         d="m 100.89005,199.18095 c 0,0 -1.212937,2.7291 -0.996341,4.37522 0.216591,1.64613 2.382551,-4.28858 2.382551,-4.28858 z"
         id="path8" />
      <path
         style="display:inline;fill:#000000;fill-opacity:1;stroke:none;stroke-width:2.74799;stroke-dasharray:none"
         d="m 104.74544,200.09065 c 0,0 0,4.63514 0.9097,4.41854 0.9097,-0.21659 0.82306,-4.72177 0.82306,-4.72177 z"
         id="path9" />
      <path
         style="display:inline;fill:#000000;fill-opacity:1;stroke:none;stroke-width:2.74799;stroke-dasharray:none"
         d="m 108.2976,199.96069 c 0,0 0.0433,4.46186 0.73643,4.67846 0.6931,0.2166 0.51983,-4.76509 0.51983,-4.76509 z"
         id="path10" />
      <path
         style="display:inline;fill:#000000;fill-opacity:1;stroke:none;stroke-width:2.74799;stroke-dasharray:none"
         d="m 112.8461,198.6178 c 0,0 1.03966,3.11897 1.73276,2.98902 0.69311,-0.12996 -0.51983,-3.03233 -0.51983,-3.03233 z"
         id="path11" />
      <path
         style="display:inline;fill:#000000;fill-opacity:1;stroke:none;stroke-width:2.74799;stroke-dasharray:none"
         d="m 115.92175,197.31823 c 0,0 0.95302,2.64246 2.33923,3.46553 1.38621,0.82306 -0.95302,-4.28859 -0.95302,-4.28859 z"
         id="path12" />
      <path
         style="display:inline;fill:#000000;fill-opacity:1;stroke:none;stroke-width:2.74799;stroke-dasharray:none"
         d="m 120.55689,194.19926 c 0,0 1.64613,5.37156 3.11897,5.24161 1.47285,-0.12996 -2.42586,-5.71812 -2.42586,-5.71812 z"
         id="path13" />
      <path
         style="display:inline;fill:#000000;fill-opacity:1;stroke:none;stroke-width:2.74799;stroke-dasharray:none"
         d="m 125.88513,187.26822 c 0,0 3.46553,4.46186 6.80109,6.10798 3.33557,1.64612 -6.10798,-6.93105 -6.10798,-6.93105 z"
         id="path14" />
      <path
         style="display:inline;fill:#000000;fill-opacity:1;stroke:none;stroke-width:2.74799;stroke-dasharray:none"
         d="m 127.57458,184.36584 c 0,0 5.71811,5.67479 6.49785,4.41854 0.77975,-1.25625 -6.80109,-4.98169 -6.80109,-4.98169 z"
         id="path15" />
      <path
         style="display:inline;fill:#000000;fill-opacity:1;stroke:none;stroke-width:2.74799;stroke-dasharray:none"
         d="m 128.311,181.63674 c 0,0 7.32092,4.46186 7.75411,3.89871 0.43319,-0.56314 -5.41488,-5.11164 -7.06101,-5.32824 -1.64612,-0.21659 -0.6931,1.42953 -0.6931,1.42953 z"
         id="path16" />
      <path
         style="display:inline;fill:#000000;fill-opacity:1;stroke:none;stroke-width:2.74799;stroke-dasharray:none"
         d="m 128.09441,176.78501 c 0,0 7.53751,0.30323 8.62049,-0.47651 1.08297,-0.77975 -7.75411,-1.25626 -8.66382,-0.9097 -0.90969,0.34655 0.0433,1.38621 0.0433,1.38621 z"
         id="path17" />
      <path
         style="display:inline;fill:#000000;fill-opacity:1;stroke:none;stroke-width:2.74799;stroke-dasharray:none"
         d="m 127.96445,172.40978 c 0,0 7.32091,0.17328 8.10066,1.68945 0.77974,1.51616 -8.44721,-0.30324 -8.44721,-0.30324 z"
         id="path18" />
      <path
         style="display:inline;fill:#000000;fill-opacity:1;stroke:none;stroke-width:2.74799;stroke-dasharray:none"
         d="m 125.88513,166.69167 c 0,0 3.07566,-1.99267 3.07566,-3.6388 0,-1.64612 -3.89872,2.64246 -3.89872,2.64246 z"
         id="path19" />
      <path
         style="display:inline;fill:#000000;fill-opacity:1;stroke:none;stroke-width:2.74799;stroke-dasharray:none"
         d="m 123.89246,163.96257 c 0,0 5.11164,-2.98901 4.28858,-3.94203 -0.82306,-0.95302 -5.11164,3.59548 -5.11164,3.59548 z"
         id="path20" />
      <path
         style="display:inline;fill:#000000;fill-opacity:1;stroke:none;stroke-width:2.74799;stroke-dasharray:none"
         d="m 121.46659,161.49339 c 0,0 3.68212,-2.12264 3.59548,-4.15863 -0.0866,-2.036 -4.02867,3.59548 -4.02867,3.59548 z"
         id="path21" />
      <path
         style="display:inline;fill:#000000;fill-opacity:1;stroke:none;stroke-width:2.74799;stroke-dasharray:none"
         d="m 119.25732,159.24079 c 0,0 3.33557,-4.50517 2.9457,-5.71811 -0.38988,-1.21293 -4.15863,5.02501 -4.15863,5.02501 z"
         id="path22" />
      <path
         style="display:inline;fill:#000000;fill-opacity:1;stroke:none;stroke-width:2.74799;stroke-dasharray:none"
         d="m 114.92542,157.24812 c 0,0 2.68578,-1.8194 2.94569,-5.19828 0.25991,-3.37889 -4.02867,4.98168 -4.02867,4.98168 v 0 z"
         id="path23" />
      <path
         style="display:inline;fill:#000000;fill-opacity:1;stroke:none;stroke-width:2.74799;stroke-dasharray:none"
         d="m 111.80645,156.20846 c 0,0 1.3862,-3.98535 0.86638,-6.32458 -0.51983,-2.33923 -2.64247,5.93471 -1.8194,6.41122 0.82306,0.47651 0.95302,-0.0866 0.95302,-0.0866 z"
         id="path24" />
      <path
         style="display:inline;fill:#000000;fill-opacity:1;stroke:none;stroke-width:2.74799;stroke-dasharray:none"
         d="m 109.12066,155.602 c 0,0 1.38621,-2.77242 1.16962,-6.10799 -0.2166,-3.33556 -1.42953,5.93471 -2.55582,5.93471 -1.1263,0 1.3862,0.17328 1.3862,0.17328 z"
         id="path25" />
      <path
         style="display:inline;fill:#000000;fill-opacity:1;stroke:none;stroke-width:2.74799;stroke-dasharray:none"
         d="m 105.43855,156.07851 c 0,-0.34656 1.34289,-5.19829 0.43319,-6.45454 -0.9097,-1.25625 -1.77608,5.80475 -0.82306,6.49786 0.95301,0.6931 0.38987,-0.0433 0.38987,-0.0433 z"
         id="path26" />
      <path
         style="display:inline;fill:#000000;fill-opacity:1;stroke:none;stroke-width:2.74799;stroke-dasharray:none"
         d="m 101.2366,156.90157 c 0,0 0.25991,-5.71812 -1.1263,-6.84441 -1.386206,-1.1263 -0.996334,6.84441 -0.0866,6.97436 0.9097,0.12996 1.21293,-0.12995 1.21293,-0.12995 z"
         id="path27" />
      <path
         style="display:inline;fill:#000000;fill-opacity:1;stroke:none;stroke-width:2.74799;stroke-dasharray:none"
         d="m 97.337887,158.02786 c 0,0 -0.389872,-2.94569 -1.86272,-4.50518 -1.472848,-1.55948 -0.129958,4.85173 0.693105,4.98169 0.823061,0.12996 0.736423,-0.64978 0.736423,-0.64978 z"
         id="path28" />
      <path
         style="display:inline;fill:#000000;fill-opacity:1;stroke:none;stroke-width:2.74799;stroke-dasharray:none"
         d="m 93.0493,160.71364 c 0,-0.21659 -0.476509,-3.72543 -3.248927,-4.41854 -2.77242,-0.6931 3.248927,4.41854 3.248927,4.41854 z"
         id="path29" />
      <path
         style="display:inline;fill:#000000;fill-opacity:1;stroke:none;stroke-width:2.74799;stroke-dasharray:none"
         d="m 90.406838,163.48606 c 0,0 -1.212932,-2.59914 -3.552161,-3.68212 -2.339229,-1.08297 2.859058,4.11531 2.859058,4.11531 z"
         id="path30" />
      <path
         style="display:inline;fill:#000000;fill-opacity:1;stroke:none;stroke-width:2.74799;stroke-dasharray:none"
         d="m 87.764378,166.60503 c 0,0 -0.736425,-3.03233 -2.122633,-3.03233 -1.38621,0 1.429528,3.50884 1.429528,3.50884 z"
         id="path31" />
      <path
         style="display:inline;fill:#000000;fill-opacity:1;stroke:none;stroke-width:2.74799;stroke-dasharray:none"
         d="m 85.078598,174.35914 c 0,0 -6.931049,-2.81574 -7.2776,-1.77608 -0.346551,1.03966 5.761432,2.90238 6.71445,2.55582 0.953022,-0.34655 0.56315,-0.77974 0.56315,-0.77974 z"
         id="path32" />
      <path
         style="display:inline;fill:#000000;fill-opacity:1;stroke:none;stroke-width:2.74799;stroke-dasharray:none"
         d="m 85.208553,178.47445 c 0,0 -5.37156,-1.12629 -6.107985,-0.43319 -0.736423,0.6931 5.41488,2.07931 5.41488,2.07931 z"
         id="path33" />
      <path
         style="display:inline;fill:#000000;fill-opacity:1;stroke:none;stroke-width:2.74799;stroke-dasharray:none"
         d="m 85.121916,181.63674 c 0,0 -5.761432,-0.30323 -5.371561,0.47651 0.389872,0.77974 5.458198,1.1263 5.458198,1.1263 z"
         id="path34" />
    </g>
    <path
       style="display:inline;fill:#000000;fill-opacity:1;stroke:none;stroke-width:10.2137;stroke-dasharray:none"
       d="m 319.54848,357.86597 c 0,0 29.1744,15.6743 30.33215,54.63609 1.1577,38.96182 -25.46975,74.34092 -25.46975,74.34092 0,0 18.98653,-2.68703 27.32209,-1.3435 8.33553,1.3435 27.09049,21.94399 27.09049,21.94399 l -3.70466,0.22405 c 0,0 -14.5872,-15.45035 -19.68117,-16.12211 -5.09393,-0.67173 -19.21803,-1.11959 -19.21803,-1.11959 0,0 13.66103,1.79135 14.5872,5.82187 0.92617,4.03057 6.25164,11.19593 6.25164,11.19593 l -3.70469,1.79135 c 0,0 -2.08388,-9.8524 -11.57715,-12.98728 -9.49323,-3.13485 -0.92613,4.03057 0.69464,7.61323 1.62081,3.5827 -1.38924,5.37405 -1.38924,5.37405 0,0 -6.48321,-15.00254 -21.76505,-18.80915 -15.2818,-3.80662 25.23817,-43.88799 24.08046,-74.78873 -1.1577,-30.90075 -27.09052,-53.2926 -27.09052,-53.2926 z"
       id="path35"
       inkscape:label="right leg" />
    <path
       style="display:inline;fill:#000000;fill-opacity:1;stroke:none;stroke-width:10.2137;stroke-dasharray:none"
       d="m 189.18989,371.07714 c 0,0 -20.37577,21.04836 -22.92275,62.69719 -2.54697,41.64881 14.81875,49.70989 14.81875,49.70989 0,0 -30.33212,-1.79136 -42.1408,2.91094 -11.80869,4.70228 32.64754,1.56739 32.64754,1.56739 0,0 -17.8288,8.285 -13.42949,9.85244 4.39932,1.56744 19.91269,-7.16541 19.91269,-7.16541 0,0 -9.7248,14.33081 -5.55703,14.77863 4.16777,0.44782 18.55393,-21.64325 18.55393,-21.64325 0,0 -18.8993,-37.87222 -16.94476,-53.05042 1.83348,-14.23803 1.91551,-34.85254 17.84043,-56.5225 9.4158,-12.81264 -2.77851,-3.1349 -2.77851,-3.1349 z"
       id="path36"
       sodipodi:nodetypes="cscscscscssc"
       inkscape:label="left leg" />
    <path
       style="display:inline;fill:#000000;fill-opacity:1;stroke:none;stroke-width:10.2137;stroke-dasharray:none"
       d="m 172.59826,279.68005 c 0,0 -112.840822,-110.12945 -107.978422,-132.74519 4.8624,-22.61577 13.42948,-19.03307 13.42948,-19.03307 l -3.70468,-8.50893 c 0,0 -17.77364,13.39763 -18.06034,29.1094 -0.69464,38.06615 115.228872,140.79037 115.228872,140.79037 z"
       id="path37"
       sodipodi:nodetypes="csccscc" />
    <path
       style="display:inline;fill:#000000;fill-opacity:1;stroke:none;stroke-width:10.2137;stroke-dasharray:none"
       d="m 327.30048,288.50578 c 0,0 110.02356,-69.98374 111.0059,-122.23403 0.98237,-52.25031 -9.49606,-56.05031 -9.49606,-56.05031 l -9.16865,8.86669 c 0,0 18.66471,19.00013 7.20393,55.417 -11.46077,36.41688 -104.67197,110.06946 -104.67197,110.06946 z"
       id="path38"
       sodipodi:nodetypes="csccscc" />
    <path
       style="fill:#90653f;fill-opacity:1;stroke:#000000;stroke-width:10.4568;stroke-dasharray:none;stroke-opacity:1"
       d="M 71.195228,76.089287 255.76971,38.038228 c 0,0 165.79533,42.738424 163.47651,42.738424 -2.31881,0 -168.1141,45.852298 -168.1141,45.852298 z"
       id="path40"
       sodipodi:nodetypes="ccscc" />
    <path
       style="fill:none;fill-opacity:1;stroke:#000000;stroke-width:8.24876;stroke-dasharray:none;stroke-opacity:1"
       d="m 426.68471,113.64299 -6.23509,-3.68811 0.73353,14.38362 5.50156,0.36865 z"
       id="path41" />
    <path
       sodipodi:nodetypes="cccccccccc"
       inkscape:connector-curvature="0"
       id="path3336-6"
       d="m 153.33866,84.588904 23.18662,38.842386 -10.6557,0.0967 -6.19027,-10.43549 -6.23445,10.37973 -5.29442,-0.002 -2.71166,-4.53053 8.8822,-14.76993 -6.30523,-10.611021 z"
       style="display:inline;fill:url(#linearGradient4328);fill-opacity:1;fill-rule:evenodd;stroke:none;stroke-width:0.559795;stroke-linecap:butt;stroke-linejoin:round;stroke-miterlimit:4;stroke-dasharray:none;stroke-opacity:1" />
    <use
       height="100%"
       width="100%"
       transform="matrix(0.5,0.8375082,-0.89551362,0.5,251.1653,-83.760749)"
       id="use3439-6"
       inkscape:transform-center-y="146.59911"
       inkscape:transform-center-x="124.43042"
       xlink:href="#path3336-6"
       y="0"
       x="0"
       style="display:inline" />
    <use
       height="100%"
       width="100%"
       transform="matrix(0.5,-0.8375082,0.89551362,0.5,11.066859,185.76552)"
       id="use3445-0"
       inkscape:transform-center-y="73.085384"
       inkscape:transform-center-x="-168.20651"
       xlink:href="#path3336-6"
       y="0"
       x="0"
       style="display:inline" />
    <use
       height="100%"
       width="100%"
       transform="rotate(180,192.86612,95.637238)"
       id="use3449-5"
       inkscape:transform-center-y="-135.33766"
       inkscape:transform-center-x="59.669705"
       xlink:href="#path3336-6"
       y="0"
       x="0"
       style="display:inline" />
    <path
       style="color:#000000;clip-rule:nonzero;display:inline;overflow:visible;visibility:visible;isolation:auto;mix-blend-mode:normal;color-interpolation:sRGB;color-interpolation-filters:linearRGB;solid-color:#000000;solid-opacity:1;fill:url(#linearGradient4330);fill-opacity:1;fill-rule:evenodd;stroke:none;stroke-width:0.559795;stroke-linecap:butt;stroke-linejoin:round;stroke-miterlimit:4;stroke-dasharray:none;stroke-dashoffset:0;stroke-opacity:1;color-rendering:auto;image-rendering:auto;shape-rendering:auto;text-rendering:auto;enable-background:accumulate"
       d="m 171.02101,67.488814 23.18663,38.842376 -10.6557,0.0967 -6.19027,-10.435505 -6.23445,10.379735 -5.29442,-0.002 -2.71167,-4.53054 8.8822,-14.769937 -6.30523,-10.610995 z"
       id="path4260-0"
       inkscape:connector-curvature="0"
       sodipodi:nodetypes="cccccccccc" />
    <use
       height="100%"
       width="100%"
       transform="matrix(-0.5,0.8375082,-0.89551362,-0.5,425.72882,-29.97281)"
       id="use4354-5"
       xlink:href="#path4260-0"
       y="0"
       x="0"
       style="display:inline" />
    <use
       height="100%"
       width="100%"
       transform="matrix(-0.5,-0.8375082,0.89551362,-0.5,331.56296,292.68839)"
       id="use4362-2"
       xlink:href="#path4260-0"
       y="0"
       x="0"
       style="display:inline" />
    <path
       sodipodi:nodetypes="cccccccccc"
       inkscape:connector-curvature="0"
       id="path3336-6-6"
       d="m 214.87326,80.731828 44.029,73.757662 -20.23407,0.18356 -11.75468,-19.81593 -11.83858,19.71004 -10.05356,-0.004 -5.14917,-8.60303 16.86638,-28.04657 -11.97298,-20.149224 z"
       style="display:inline;fill:url(#linearGradient2);fill-opacity:1;fill-rule:evenodd;stroke:none;stroke-width:1.06299;stroke-linecap:butt;stroke-linejoin:round;stroke-miterlimit:4;stroke-dasharray:none;stroke-opacity:1" />
    <use
       height="100%"
       width="100%"
       transform="matrix(0.49999998,0.83750821,-0.89551363,0.49999998,195.62489,-169.97376)"
       id="use3439-6-1"
       inkscape:transform-center-y="146.59911"
       inkscape:transform-center-x="124.43039"
       xlink:href="#path3336-6-6"
       y="0"
       x="0"
       style="display:inline" />
    <use
       height="100%"
       width="100%"
       transform="matrix(0.49999998,-0.83750821,0.89551363,0.49999998,54.410269,248.89991)"
       id="use3445-0-0"
       inkscape:transform-center-y="73.085361"
       inkscape:transform-center-x="-168.20651"
       xlink:href="#path3336-6-6"
       y="0"
       x="0"
       style="display:inline" />
    <use
       height="100%"
       width="100%"
       transform="rotate(180,250.13691,78.861281)"
       id="use3449-5-6"
       inkscape:transform-center-y="-135.33767"
       inkscape:transform-center-x="59.669705"
       xlink:href="#path3336-6-6"
       y="0"
       x="0"
       style="display:inline" />
    <path
       style="color:#000000;clip-rule:nonzero;display:inline;overflow:visible;visibility:visible;isolation:auto;mix-blend-mode:normal;color-interpolation:sRGB;color-interpolation-filters:linearRGB;solid-color:#000000;solid-opacity:1;fill:url(#linearGradient4330-7);fill-opacity:1;fill-rule:evenodd;stroke:none;stroke-width:1.06299;stroke-linecap:butt;stroke-linejoin:round;stroke-miterlimit:4;stroke-dasharray:none;stroke-dashoffset:0;stroke-opacity:1;color-rendering:auto;image-rendering:auto;shape-rendering:auto;text-rendering:auto;enable-background:accumulate"
       d="m 214.87326,80.731828 44.029,73.757662 -20.23407,0.18356 -11.75468,-19.81593 -11.83858,19.71004 -10.05356,-0.004 -5.14917,-8.60303 16.86638,-28.04657 -11.97298,-20.149195 z"
       id="path4260-0-32"
       inkscape:connector-curvature="0"
       sodipodi:nodetypes="cccccccccc" />
    <use
       height="100%"
       width="100%"
       transform="matrix(-0.5,0.8375082,-0.89551362,-0.5,445.68171,-91.346732)"
       id="use4354-5-0"
       xlink:href="#path4260-0-32"
       y="0"
       x="0"
       style="display:inline" />
    <use
       height="100%"
       width="100%"
       transform="matrix(-0.5,-0.8375082,0.89551362,-0.5,304.54892,327.68497)"
       id="use4362-2-6"
       xlink:href="#path4260-0-32"
       y="0"
       x="0"
       style="display:inline" />
    <path
       sodipodi:nodetypes="cccccccccc"
       inkscape:connector-curvature="0"
       id="path3336-6-2"
       d="m 277.77542,81.824774 23.1285,43.046446 -10.62899,0.10713 -6.17475,-11.56497 -6.21882,11.50317 -5.28115,-0.002 -2.70487,-5.0209 8.85993,-16.36854 -6.28942,-11.759485 z"
       style="display:inline;fill:url(#linearGradient1);fill-opacity:1;fill-rule:evenodd;stroke:none;stroke-width:0.58857;stroke-linecap:butt;stroke-linejoin:round;stroke-miterlimit:4;stroke-dasharray:none;stroke-opacity:1" />
    <use
       height="100%"
       width="100%"
       transform="matrix(0.50000001,0.93048756,-0.80602907,0.5,213.18885,-235.28546)"
       id="use3439-6-8"
       inkscape:transform-center-y="146.59911"
       inkscape:transform-center-x="124.43043"
       xlink:href="#path3336-6-2"
       y="0"
       x="0"
       style="display:inline" />
    <use
       height="100%"
       width="100%"
       transform="matrix(0.50000001,-0.93048756,0.80602907,0.5,83.057164,316.05642)"
       id="use3445-0-9"
       inkscape:transform-center-y="73.08538"
       inkscape:transform-center-x="-168.20651"
       xlink:href="#path3336-6-2"
       y="0"
       x="0"
       style="display:inline" />
    <use
       height="100%"
       width="100%"
       transform="rotate(180,271.74064,110.18324)"
       id="use3449-5-7"
       inkscape:transform-center-y="-135.33768"
       inkscape:transform-center-x="59.669705"
       xlink:href="#path3336-6-2"
       y="0"
       x="0"
       style="display:inline" />
    <path
       style="color:#000000;clip-rule:nonzero;display:inline;overflow:visible;visibility:visible;isolation:auto;mix-blend-mode:normal;color-interpolation:sRGB;color-interpolation-filters:linearRGB;solid-color:#000000;solid-opacity:1;fill:url(#linearGradient4330-2);fill-opacity:1;fill-rule:evenodd;stroke:none;stroke-width:0.58857;stroke-linecap:butt;stroke-linejoin:round;stroke-miterlimit:4;stroke-dasharray:none;stroke-dashoffset:0;stroke-opacity:1;color-rendering:auto;image-rendering:auto;shape-rendering:auto;text-rendering:auto;enable-background:accumulate"
       d="m 288.25385,91.958171 23.1285,43.046439 -10.62899,0.10713 -6.17475,-11.56497 -6.21882,11.50317 -5.28115,-0.002 -2.70487,-5.0209 8.85994,-16.36853 -6.28943,-11.75947 z"
       id="path4260-0-3"
       inkscape:connector-curvature="0"
       sodipodi:nodetypes="cccccccccc" />
    <use
       height="100%"
       width="100%"
       transform="matrix(-0.55662678,0.93048756,-0.89731473,-0.5,502.38237,-122.00557)"
       id="use4354-5-6"
       xlink:href="#path4260-0-3"
       y="0"
       x="0"
       style="display:inline" />
    <use
       height="100%"
       width="100%"
       transform="matrix(-0.50000001,-0.93048756,0.80602907,-0.5,388.2172,420.42849)"
       id="use4362-2-1"
       xlink:href="#path4260-0-3"
       y="0"
       x="0"
       style="display:inline" />
    <path
       style="fill:#cc9a69;fill-opacity:1;stroke:#000000;stroke-width:10.2137;stroke-dasharray:none;stroke-opacity:1"
       d="M 75.039268,78.191864 V 151.6371 l 176.898722,62.0254 167.63701,-56.4274 -5.09393,-74.117005 -161.1538,43.216255 -2.31546,86.88033 1.85235,-88.22386 z"
       id="path39"
       sodipodi:nodetypes="ccccccccc" />
  </g>
</svg>
