<?xml version="1.0" encoding="UTF-8" standalone="no"?>
<!-- Created with Inkscape (http://www.inkscape.org/) -->

<svg
   width="512"
   height="512"
   viewBox="0 0 512 512"
   version="1.1"
   id="svg1"
   inkscape:version="1.4.2 (ebf0e940d0, 2025-05-08)"
   sodipodi:docname="with-headphones.svg"
   xmlns:inkscape="http://www.inkscape.org/namespaces/inkscape"
   xmlns:sodipodi="http://sodipodi.sourceforge.net/DTD/sodipodi-0.dtd"
   xmlns:xlink="http://www.w3.org/1999/xlink"
   xmlns="http://www.w3.org/2000/svg"
   xmlns:svg="http://www.w3.org/2000/svg">
  <sodipodi:namedview
     id="namedview1"
     pagecolor="#ffffff"
     bordercolor="#000000"
     borderopacity="0.25"
     inkscape:showpageshadow="2"
     inkscape:pageopacity="0.0"
     inkscape:pagecheckerboard="0"
     inkscape:deskcolor="#d1d1d1"
     inkscape:document-units="px"
     inkscape:zoom="0.69743931"
     inkscape:cx="197.86668"
     inkscape:cy="71.690826"
     inkscape:window-width="1268"
     inkscape:window-height="1398"
     inkscape:window-x="0"
     inkscape:window-y="0"
     inkscape:window-maximized="1"
     inkscape:current-layer="g109" />
  <defs
     id="defs1">
    <linearGradient
       inkscape:collect="always"
       xlink:href="#linearGradient5562"
       id="linearGradient109"
       gradientUnits="userSpaceOnUse"
       gradientTransform="translate(70.650339,-1055.1511)"
       x1="200.59668"
       y1="351.41116"
       x2="290.08701"
       y2="506.18814" />
    <linearGradient
       inkscape:collect="always"
       id="linearGradient5562">
      <stop
         style="stop-color:#699ad7;stop-opacity:1"
         offset="0"
         id="stop5564" />
      <stop
         id="stop5566"
         offset="0.24345198"
         style="stop-color:#7eb1dd;stop-opacity:1" />
      <stop
         style="stop-color:#7ebae4;stop-opacity:1"
         offset="1"
         id="stop5568" />
    </linearGradient>
    <linearGradient
       inkscape:collect="always"
       xlink:href="#linearGradient5053"
       id="linearGradient110"
       gradientUnits="userSpaceOnUse"
       gradientTransform="translate(957.88444,-1584.529)"
       x1="-584.19934"
       y1="782.33563"
       x2="-496.29703"
       y2="937.71399" />
    <linearGradient
       inkscape:collect="always"
       id="linearGradient5053">
      <stop
         style="stop-color:#415e9a;stop-opacity:1"
         offset="0"
         id="stop5055" />
      <stop
         id="stop5057"
         offset="0.23168644"
         style="stop-color:#4a6baf;stop-opacity:1" />
      <stop
         style="stop-color:#5277c3;stop-opacity:1"
         offset="1"
         id="stop5059" />
    </linearGradient>
    <linearGradient
       inkscape:collect="always"
       xlink:href="#linearGradient5053"
       id="linearGradient112"
       gradientUnits="userSpaceOnUse"
       gradientTransform="translate(864.69589,-1491.3405)"
       x1="-584.19934"
       y1="782.33563"
       x2="-496.29703"
       y2="937.71399" />
    <linearGradient
       inkscape:collect="always"
       xlink:href="#linearGradient5053"
       id="linearGradient114"
       gradientUnits="userSpaceOnUse"
       gradientTransform="translate(920.05751,-1441.5109)"
       x1="-584.19934"
       y1="782.33563"
       x2="-496.29703"
       y2="937.71399" />
    <linearGradient
       inkscape:collect="always"
       xlink:href="#linearGradient5562"
       id="linearGradient1"
       gradientUnits="userSpaceOnUse"
       gradientTransform="translate(70.650339,-1055.1511)"
       x1="200.59668"
       y1="351.41116"
       x2="290.08701"
       y2="506.18814" />
    <linearGradient
       inkscape:collect="always"
       xlink:href="#linearGradient5562"
       id="linearGradient2"
       gradientUnits="userSpaceOnUse"
       gradientTransform="translate(70.650339,-1055.1511)"
       x1="200.59668"
       y1="351.41116"
       x2="290.08701"
       y2="506.18814" />
  </defs>
  <g
     inkscape:label="Layer 1"
     inkscape:groupmode="layer"
     id="layer1">
    <g
       id="g124"
       inkscape:label="with-headphones"
       transform="matrix(3.2622796,0,0,3.2622796,-63.211982,-284.17217)">
      <g
         inkscape:groupmode="layer"
         id="g109"
         inkscape:label="dude"
         style="display:inline"
         transform="rotate(-28.919536,106.72393,158.98263)">
        <ellipse
           style="fill:#4f3e29;fill-opacity:1;stroke:#000000;stroke-width:4.75108;stroke-dasharray:none"
           id="ellipse2"
           cx="166.93964"
           cy="76.29583"
           rx="38.805916"
           ry="38.167744"
           inkscape:label="face"
           transform="matrix(0.88267988,0.46997471,-0.51927704,0.85460596,0,0)" />
        <g
           id="g6"
           inkscape:label="eyes"
           transform="matrix(1.6106495,0.85757537,-0.91612193,1.5077178,98.677373,-216.05149)">
          <ellipse
             style="fill:#ffffff;fill-opacity:1;stroke:none;stroke-width:1.209;stroke-dasharray:none"
             id="ellipse3"
             cx="97.407173"
             cy="178.151"
             rx="7.9923477"
             ry="7.9923472"
             inkscape:label="left retina" />
          <ellipse
             style="fill:#ffffff;fill-opacity:1;stroke:none;stroke-width:1.209;stroke-dasharray:none"
             id="ellipse4"
             cx="116.76179"
             cy="178.24994"
             rx="7.9923477"
             ry="7.9923472"
             inkscape:label="right retina" />
          <ellipse
             style="fill:#000000;fill-opacity:1;stroke:none;stroke-width:1.1729;stroke-dasharray:none"
             id="ellipse5"
             cx="99.296844"
             cy="178.94571"
             rx="2.079314"
             ry="2.0359948"
             inkscape:label="left pupil" />
          <ellipse
             style="display:inline;fill:#000000;fill-opacity:1;stroke:none;stroke-width:1.1729;stroke-dasharray:none"
             id="ellipse6"
             cx="114.90078"
             cy="178.97238"
             rx="2.079314"
             ry="2.0359948"
             inkscape:label="right pupil" />
        </g>
        <g
           id="g89"
           inkscape:label="hairs"
           transform="matrix(1.6106495,0.85757537,-0.91612193,1.5077178,98.677373,-216.05149)">
          <path
             style="fill:#000000;fill-opacity:1;stroke:none;stroke-width:2.74799;stroke-dasharray:none"
             d="m 87.721059,186.01197 c 0,0 -4.028671,0.0433 -6.671133,2.7291 -2.642463,2.68578 7.364238,-1.86272 7.364238,-1.86272 z"
             id="path37" />
          <path
             style="display:inline;fill:#000000;fill-opacity:1;stroke:none;stroke-width:2.74799;stroke-dasharray:none"
             d="m 89.02063,190.51714 c 0,0 -3.725439,1.8194 -3.942032,3.55216 -0.216596,1.73276 4.721775,-2.5125 4.721775,-2.5125 z"
             id="path38" />
          <path
             style="display:inline;fill:#000000;fill-opacity:1;stroke:none;stroke-width:2.74799;stroke-dasharray:none"
             d="m 94.305553,196.06198 c 0,0 -3.855395,5.71812 -1.689444,3.94203 2.165953,-1.77608 2.859058,-3.16229 2.859058,-3.16229 z"
             id="path41" />
          <path
             style="display:inline;fill:#000000;fill-opacity:1;stroke:none;stroke-width:2.74799;stroke-dasharray:none"
             d="m 97.121291,197.88138 c 0,0 -1.169615,1.90604 -1.169615,3.29225 0,1.38621 2.165951,-2.90238 2.165951,-2.90238 l -1.34289,-0.34655 z"
             id="path42" />
          <path
             style="display:inline;fill:#000000;fill-opacity:1;stroke:none;stroke-width:2.74799;stroke-dasharray:none"
             d="m 100.89005,199.18095 c 0,0 -1.212937,2.7291 -0.996341,4.37522 0.216591,1.64613 2.382551,-4.28858 2.382551,-4.28858 z"
             id="path43" />
          <path
             style="display:inline;fill:#000000;fill-opacity:1;stroke:none;stroke-width:2.74799;stroke-dasharray:none"
             d="m 104.74544,200.09065 c 0,0 0,4.63514 0.9097,4.41854 0.9097,-0.21659 0.82306,-4.72177 0.82306,-4.72177 z"
             id="path44" />
          <path
             style="display:inline;fill:#000000;fill-opacity:1;stroke:none;stroke-width:2.74799;stroke-dasharray:none"
             d="m 108.2976,199.96069 c 0,0 0.0433,4.46186 0.73643,4.67846 0.6931,0.2166 0.51983,-4.76509 0.51983,-4.76509 z"
             id="path45" />
          <path
             style="display:inline;fill:#000000;fill-opacity:1;stroke:none;stroke-width:2.74799;stroke-dasharray:none"
             d="m 112.8461,198.6178 c 0,0 1.03966,3.11897 1.73276,2.98902 0.69311,-0.12996 -0.51983,-3.03233 -0.51983,-3.03233 z"
             id="path46" />
          <path
             style="display:inline;fill:#000000;fill-opacity:1;stroke:none;stroke-width:2.74799;stroke-dasharray:none"
             d="m 115.92175,197.31823 c 0,0 0.95302,2.64246 2.33923,3.46553 1.38621,0.82306 -0.95302,-4.28859 -0.95302,-4.28859 z"
             id="path47" />
          <path
             style="display:inline;fill:#000000;fill-opacity:1;stroke:none;stroke-width:2.74799;stroke-dasharray:none"
             d="m 120.55689,194.19926 c 0,0 1.64613,5.37156 3.11897,5.24161 1.47285,-0.12996 -2.42586,-5.71812 -2.42586,-5.71812 z"
             id="path49" />
          <path
             style="display:inline;fill:#000000;fill-opacity:1;stroke:none;stroke-width:2.74799;stroke-dasharray:none"
             d="m 125.88513,187.26822 c 0,0 3.46553,4.46186 6.80109,6.10798 3.33557,1.64612 -6.10798,-6.93105 -6.10798,-6.93105 z"
             id="path55" />
          <path
             style="display:inline;fill:#000000;fill-opacity:1;stroke:none;stroke-width:2.74799;stroke-dasharray:none"
             d="m 127.57458,184.36584 c 0,0 5.71811,5.67479 6.49785,4.41854 0.77975,-1.25625 -6.80109,-4.98169 -6.80109,-4.98169 z"
             id="path56" />
          <path
             style="display:inline;fill:#000000;fill-opacity:1;stroke:none;stroke-width:2.74799;stroke-dasharray:none"
             d="m 128.311,181.63674 c 0,0 7.32092,4.46186 7.75411,3.89871 0.43319,-0.56314 -5.41488,-5.11164 -7.06101,-5.32824 -1.64612,-0.21659 -0.6931,1.42953 -0.6931,1.42953 z"
             id="path57" />
          <path
             style="display:inline;fill:#000000;fill-opacity:1;stroke:none;stroke-width:2.74799;stroke-dasharray:none"
             d="m 128.09441,176.78501 c 0,0 7.53751,0.30323 8.62049,-0.47651 1.08297,-0.77975 -7.75411,-1.25626 -8.66382,-0.9097 -0.90969,0.34655 0.0433,1.38621 0.0433,1.38621 z"
             id="path72" />
          <path
             style="display:inline;fill:#000000;fill-opacity:1;stroke:none;stroke-width:2.74799;stroke-dasharray:none"
             d="m 127.96445,172.40978 c 0,0 7.32091,0.17328 8.10066,1.68945 0.77974,1.51616 -8.44721,-0.30324 -8.44721,-0.30324 z"
             id="path73" />
          <path
             style="display:inline;fill:#000000;fill-opacity:1;stroke:none;stroke-width:2.74799;stroke-dasharray:none"
             d="m 125.88513,166.69167 c 0,0 3.07566,-1.99267 3.07566,-3.6388 0,-1.64612 -3.89872,2.64246 -3.89872,2.64246 z"
             id="path74" />
          <path
             style="display:inline;fill:#000000;fill-opacity:1;stroke:none;stroke-width:2.74799;stroke-dasharray:none"
             d="m 123.89246,163.96257 c 0,0 5.11164,-2.98901 4.28858,-3.94203 -0.82306,-0.95302 -5.11164,3.59548 -5.11164,3.59548 z"
             id="path75" />
          <path
             style="display:inline;fill:#000000;fill-opacity:1;stroke:none;stroke-width:2.74799;stroke-dasharray:none"
             d="m 121.46659,161.49339 c 0,0 3.68212,-2.12264 3.59548,-4.15863 -0.0866,-2.036 -4.02867,3.59548 -4.02867,3.59548 z"
             id="path76" />
          <path
             style="display:inline;fill:#000000;fill-opacity:1;stroke:none;stroke-width:2.74799;stroke-dasharray:none"
             d="m 93.191415,161.89552 c 0,-0.21659 -0.476509,-3.72543 -3.248927,-4.41854 -2.77242,-0.6931 3.248927,4.41854 3.248927,4.41854 z"
             id="path84" />
          <path
             style="display:inline;fill:#000000;fill-opacity:1;stroke:none;stroke-width:2.74799;stroke-dasharray:none"
             d="m 90.406838,163.48606 c 0,0 -1.212932,-2.59914 -3.552161,-3.68212 -2.339229,-1.08297 2.859058,4.11531 2.859058,4.11531 z"
             id="path85" />
          <path
             style="display:inline;fill:#000000;fill-opacity:1;stroke:none;stroke-width:2.74799;stroke-dasharray:none"
             d="m 87.764378,166.60503 c 0,0 -0.736425,-3.03233 -2.122633,-3.03233 -1.38621,0 1.429528,3.50884 1.429528,3.50884 z"
             id="path86" />
          <path
             style="display:inline;fill:#000000;fill-opacity:1;stroke:none;stroke-width:2.74799;stroke-dasharray:none"
             d="m 85.078598,174.35914 c 0,0 -6.931049,-2.81574 -7.2776,-1.77608 -0.346551,1.03966 5.761432,2.90238 6.71445,2.55582 0.953022,-0.34655 0.56315,-0.77974 0.56315,-0.77974 z"
             id="path87" />
          <path
             style="display:inline;fill:#000000;fill-opacity:1;stroke:none;stroke-width:2.74799;stroke-dasharray:none"
             d="m 85.208553,178.47445 c 0,0 -5.37156,-1.12629 -6.107985,-0.43319 -0.736423,0.6931 5.41488,2.07931 5.41488,2.07931 z"
             id="path88" />
          <path
             style="display:inline;fill:#000000;fill-opacity:1;stroke:none;stroke-width:2.74799;stroke-dasharray:none"
             d="m 85.121916,181.63674 c 0,0 -5.761432,-0.30323 -5.371561,0.47651 0.389872,0.77974 5.458198,1.1263 5.458198,1.1263 z"
             id="path89" />
        </g>
        <path
           style="fill:#000000;fill-opacity:1;stroke:none;stroke-width:4.92653;stroke-dasharray:none"
           d="m 106.7379,180.10082 c 0,0 13.93885,8.02154 13.63491,26.51664 -0.30396,18.49509 -14.13662,34.72933 -14.13662,34.72933 0,0 9.35939,-0.88968 13.41199,-0.0839 4.05261,0.80562 12.778,10.95179 12.778,10.95179 l -1.81948,0.0312 c 0,0 -6.79924,-7.62017 -9.27916,-8.04173 -2.47993,-0.42155 -9.38769,-0.91971 -9.38769,-0.91971 0,0 6.65091,1.12572 7.01444,3.05533 0.36353,1.92962 2.81163,5.43452 2.81163,5.43452 l -1.85453,0.77431 c 0,0 -0.80041,-4.71314 -5.38001,-6.39149 -4.57958,-1.67837 -0.54373,1.89213 0.17009,3.62343 0.71375,1.73137 -0.80054,2.51971 -0.80054,2.51971 0,0 -2.8401,-7.24381 -10.23976,-9.35784 -7.399707,-2.11395 13.34243,-20.29637 13.46617,-34.96975 0.12382,-14.6734 -12.0772,-25.8141 -12.0772,-25.8141 z"
           id="path90"
           inkscape:label="right leg" />
        <path
           style="fill:#000000;fill-opacity:1;stroke:none;stroke-width:4.92653;stroke-dasharray:none"
           d="m 67.515828,153.54133 c 0,0 -13.95881,4.05919 -25.483236,20.66142 -11.524408,16.60223 -6.14445,23.86769 -6.14445,23.86769 0,0 -12.477087,-7.62128 -18.687961,-8.36097 -6.210886,-0.73977 13.519915,8.05429 13.519915,8.05429 0,0 -9.674329,-0.62782 -8.192439,1.01696 1.481906,1.6448 10.281781,1.56247 10.281781,1.56247 0,0 -7.736153,3.7049 -6.072305,4.8353 1.663846,1.13038 13.331519,-4.71796 13.331519,-4.71796 0,0 1.438501,-19.91055 6.075755,-25.72808 4.35002,-5.45717 9.551867,-13.94204 21.769738,-19.26755 7.223949,-3.14876 -0.398317,-1.92357 -0.398317,-1.92357 z"
           id="path91"
           sodipodi:nodetypes="cscscscscssc"
           inkscape:label="left leg" />
        <path
           style="display:none;fill:#90653f;fill-opacity:1;stroke:#000000;stroke-width:2.81341;stroke-dasharray:none;stroke-opacity:1"
           d="m 59.51016,112.8214 48.83533,-10.41048 c 0,0 43.86668,11.69291 43.25316,11.69291 -0.61352,0 -44.48019,12.54484 -44.48019,12.54484 z"
           id="path92"
           sodipodi:nodetypes="ccscc"
           inkscape:label="box-bg" />
        <g
           id="g108"
           style="display:none"
           inkscape:label="nix stuff">
          <g
             inkscape:groupmode="layer"
             id="g97"
             inkscape:label="gradient-logo"
             style="display:inline"
             transform="matrix(0.0502042,0,0,0.0502042,65.703286,150.81131)">
            <path
               sodipodi:nodetypes="cccccccccc"
               inkscape:connector-curvature="0"
               id="path93"
               d="m 309.54892,-710.38827 122.19683,211.67512 -56.15706,0.5268 -32.6236,-56.8692 -32.85645,56.5653 -27.90237,-0.011 -14.29086,-24.6896 46.81047,-80.4901 -33.22946,-57.8257 z"
               style="opacity:1;fill:url(#linearGradient1);fill-opacity:1;fill-rule:evenodd;stroke:none;stroke-width:3;stroke-linecap:butt;stroke-linejoin:round;stroke-miterlimit:4;stroke-dasharray:none;stroke-opacity:1" />
            <path
               sodipodi:nodetypes="cccccccccc"
               inkscape:connector-curvature="0"
               id="use93"
               d="m 829.95161,-697.48807 -122.21762,211.66312 -28.53475,-48.37004 32.93837,-56.68746 -65.41521,-0.17187 -13.94166,-24.16967 14.23639,-24.72104 93.11171,0.294 33.46379,-57.6904 z"
               style="display:inline;fill:url(#linearGradient4328);fill-opacity:1;fill-rule:evenodd;stroke:none;stroke-width:3;stroke-linecap:butt;stroke-linejoin:round;stroke-miterlimit:4;stroke-dasharray:none;stroke-opacity:1" />
            <path
               sodipodi:nodetypes="cccccccccc"
               inkscape:connector-curvature="0"
               id="use94"
               d="m 363.03058,-628.3791 244.41444,0.012 -27.6223,48.89684 -65.56198,-0.18174 32.55877,56.73717 -13.96072,24.15867 -28.52725,0.0314 -46.30123,-80.7841 -66.69326,-0.1353 z"
               style="display:inline;fill:url(#linearGradient4328);fill-opacity:1;fill-rule:evenodd;stroke:none;stroke-width:3;stroke-linecap:butt;stroke-linejoin:round;stroke-miterlimit:4;stroke-dasharray:none;stroke-opacity:1" />
            <path
               sodipodi:nodetypes="cccccccccc"
               inkscape:connector-curvature="0"
               id="use95"
               d="m 726.17982,-589.97047 -122.19683,-211.67512 56.15706,-0.5268 32.6236,56.8692 32.85645,-56.5653 27.90237,0.011 14.29086,24.6896 -46.81047,80.4901 33.22946,57.8257 z"
               style="display:inline;fill:url(#linearGradient4328);fill-opacity:1;fill-rule:evenodd;stroke:none;stroke-width:3;stroke-linecap:butt;stroke-linejoin:round;stroke-miterlimit:4;stroke-dasharray:none;stroke-opacity:1" />
            <path
               style="color:#000000;clip-rule:nonzero;display:inline;overflow:visible;visibility:visible;opacity:1;isolation:auto;mix-blend-mode:normal;color-interpolation:sRGB;color-interpolation-filters:linearRGB;solid-color:#000000;solid-opacity:1;fill:url(#linearGradient110);fill-opacity:1;fill-rule:evenodd;stroke:none;stroke-width:3;stroke-linecap:butt;stroke-linejoin:round;stroke-miterlimit:4;stroke-dasharray:none;stroke-dashoffset:0;stroke-opacity:1;color-rendering:auto;image-rendering:auto;shape-rendering:auto;text-rendering:auto;enable-background:accumulate"
               d="m 402.73747,-803.57682 122.19683,211.67512 -56.15706,0.5268 -32.6236,-56.8692 -32.85645,56.5653 -27.90237,-0.011 -14.29086,-24.6896 46.81047,-80.4901 -33.22946,-57.8256 z"
               id="path95"
               inkscape:connector-curvature="0"
               sodipodi:nodetypes="cccccccccc" />
            <path
               style="color:#000000;clip-rule:nonzero;display:inline;overflow:visible;visibility:visible;isolation:auto;mix-blend-mode:normal;color-interpolation:sRGB;color-interpolation-filters:linearRGB;solid-color:#000000;solid-opacity:1;fill:url(#linearGradient4330);fill-opacity:1;fill-rule:evenodd;stroke:none;stroke-width:3;stroke-linecap:butt;stroke-linejoin:round;stroke-miterlimit:4;stroke-dasharray:none;stroke-dashoffset:0;stroke-opacity:1;color-rendering:auto;image-rendering:auto;shape-rendering:auto;text-rendering:auto;enable-background:accumulate"
               d="m 975.91903,-738.04291 -244.41444,-0.012 27.6223,-48.89684 65.56197,0.18173 -32.55876,-56.73717 13.96071,-24.15866 28.52726,-0.0315 46.30123,80.78411 66.69317,0.13524 z"
               id="use96"
               inkscape:connector-curvature="0"
               sodipodi:nodetypes="cccccccccc" />
            <path
               style="color:#000000;clip-rule:nonzero;display:inline;overflow:visible;visibility:visible;isolation:auto;mix-blend-mode:normal;color-interpolation:sRGB;color-interpolation-filters:linearRGB;solid-color:#000000;solid-opacity:1;fill:url(#linearGradient4330);fill-opacity:1;fill-rule:evenodd;stroke:none;stroke-width:3;stroke-linecap:butt;stroke-linejoin:round;stroke-miterlimit:4;stroke-dasharray:none;stroke-dashoffset:0;stroke-opacity:1;color-rendering:auto;image-rendering:auto;shape-rendering:auto;text-rendering:auto;enable-background:accumulate"
               d="m 1116.6764,-540.77751 122.2176,-211.66312 28.5348,48.37004 -32.9384,56.68746 65.4152,0.17187 13.9417,24.16966 -14.2364,24.72105 -93.1117,-0.294 -33.4637,57.69035 z"
               id="use97"
               inkscape:connector-curvature="0"
               sodipodi:nodetypes="cccccccccc" />
          </g>
          <g
             inkscape:groupmode="layer"
             id="g102"
             inkscape:label="gradient-logo"
             style="display:inline"
             transform="matrix(0.09533259,0,0,0.09533259,68.014871,181.81472)">
            <path
               sodipodi:nodetypes="cccccccccc"
               inkscape:connector-curvature="0"
               id="path97"
               d="m 309.54892,-710.38827 122.19683,211.67512 -56.15706,0.5268 -32.6236,-56.8692 -32.85645,56.5653 -27.90237,-0.011 -14.29086,-24.6896 46.81047,-80.4901 -33.22946,-57.8257 z"
               style="opacity:1;fill:url(#linearGradient2);fill-opacity:1;fill-rule:evenodd;stroke:none;stroke-width:3;stroke-linecap:butt;stroke-linejoin:round;stroke-miterlimit:4;stroke-dasharray:none;stroke-opacity:1" />
            <path
               sodipodi:nodetypes="cccccccccc"
               inkscape:connector-curvature="0"
               id="use98"
               d="m 353.65459,-797.57947 -122.21762,211.66312 -28.53475,-48.37004 32.93837,-56.68747 -65.41521,-0.17187 -13.94166,-24.16966 14.23639,-24.72105 93.11171,0.29401 33.4638,-57.69041 z"
               style="display:inline;fill:url(#linearGradient41);fill-opacity:1;fill-rule:evenodd;stroke:none;stroke-width:3;stroke-linecap:butt;stroke-linejoin:round;stroke-miterlimit:4;stroke-dasharray:none;stroke-opacity:1" />
            <path
               sodipodi:nodetypes="cccccccccc"
               inkscape:connector-curvature="0"
               id="use99"
               d="m 363.03058,-628.3791 244.41444,0.012 -27.6223,48.89684 -65.56198,-0.18174 32.55877,56.73717 -13.96072,24.15867 -28.52725,0.0314 -46.30123,-80.7841 -66.69326,-0.1353 z"
               style="display:inline;fill:url(#linearGradient41);fill-opacity:1;fill-rule:evenodd;stroke:none;stroke-width:3;stroke-linecap:butt;stroke-linejoin:round;stroke-miterlimit:4;stroke-dasharray:none;stroke-opacity:1" />
            <path
               sodipodi:nodetypes="cccccccccc"
               inkscape:connector-curvature="0"
               id="use100"
               d="m 505.28844,-721.12473 -122.19683,-211.67512 56.15706,-0.5268 32.6236,56.8692 32.85645,-56.5653 27.90237,0.011 14.29086,24.6896 -46.81047,80.4901 33.22946,57.8257 z"
               style="display:inline;fill:url(#linearGradient41);fill-opacity:1;fill-rule:evenodd;stroke:none;stroke-width:3;stroke-linecap:butt;stroke-linejoin:round;stroke-miterlimit:4;stroke-dasharray:none;stroke-opacity:1" />
            <path
               style="color:#000000;clip-rule:nonzero;display:inline;overflow:visible;visibility:visible;opacity:1;isolation:auto;mix-blend-mode:normal;color-interpolation:sRGB;color-interpolation-filters:linearRGB;solid-color:#000000;solid-opacity:1;fill:url(#linearGradient112);fill-opacity:1;fill-rule:evenodd;stroke:none;stroke-width:3;stroke-linecap:butt;stroke-linejoin:round;stroke-miterlimit:4;stroke-dasharray:none;stroke-dashoffset:0;stroke-opacity:1;color-rendering:auto;image-rendering:auto;shape-rendering:auto;text-rendering:auto;enable-background:accumulate"
               d="m 309.54892,-710.38827 122.19683,211.67512 -56.15706,0.5268 -32.6236,-56.8692 -32.85645,56.5653 -27.90237,-0.011 -14.29086,-24.6896 46.81047,-80.4901 -33.22946,-57.8256 z"
               id="path100"
               inkscape:connector-curvature="0"
               sodipodi:nodetypes="cccccccccc" />
            <path
               style="color:#000000;clip-rule:nonzero;display:inline;overflow:visible;visibility:visible;isolation:auto;mix-blend-mode:normal;color-interpolation:sRGB;color-interpolation-filters:linearRGB;solid-color:#000000;solid-opacity:1;fill:url(#linearGradient4330-7);fill-opacity:1;fill-rule:evenodd;stroke:none;stroke-width:3;stroke-linecap:butt;stroke-linejoin:round;stroke-miterlimit:4;stroke-dasharray:none;stroke-dashoffset:0;stroke-opacity:1;color-rendering:auto;image-rendering:auto;shape-rendering:auto;text-rendering:auto;enable-background:accumulate"
               d="m 451.30201,-803.62004 -244.41444,-0.012 27.62231,-48.89684 65.56197,0.18174 -32.55876,-56.73718 13.96071,-24.15866 28.52725,-0.0314 46.30123,80.7841 66.69317,0.13525 z"
               id="use101"
               inkscape:connector-curvature="0"
               sodipodi:nodetypes="cccccccccc" />
            <path
               style="color:#000000;clip-rule:nonzero;display:inline;overflow:visible;visibility:visible;isolation:auto;mix-blend-mode:normal;color-interpolation:sRGB;color-interpolation-filters:linearRGB;solid-color:#000000;solid-opacity:1;fill:url(#linearGradient4330-7);fill-opacity:1;fill-rule:evenodd;stroke:none;stroke-width:3;stroke-linecap:butt;stroke-linejoin:round;stroke-miterlimit:4;stroke-dasharray:none;stroke-dashoffset:0;stroke-opacity:1;color-rendering:auto;image-rendering:auto;shape-rendering:auto;text-rendering:auto;enable-background:accumulate"
               d="m 460.90516,-633.96606 122.21762,-211.66312 28.53475,48.37004 -32.93837,56.68746 65.41521,0.17187 13.94166,24.16966 -14.23639,24.72105 -93.11171,-0.294 -33.46371,57.69035 z"
               id="use102"
               inkscape:connector-curvature="0"
               sodipodi:nodetypes="cccccccccc" />
          </g>
          <g
             inkscape:groupmode="layer"
             id="g107"
             inkscape:label="gradient-logo"
             style="display:inline"
             transform="matrix(0.05007835,0,0,0.055638,98.666136,153.91517)">
            <path
               sodipodi:nodetypes="cccccccccc"
               inkscape:connector-curvature="0"
               id="path102"
               d="m 309.54892,-710.38827 122.19683,211.67512 -56.15706,0.5268 -32.6236,-56.8692 -32.85645,56.5653 -27.90237,-0.011 -14.29086,-24.6896 46.81047,-80.4901 -33.22946,-57.8257 z"
               style="opacity:1;fill:url(#linearGradient109);fill-opacity:1;fill-rule:evenodd;stroke:none;stroke-width:3;stroke-linecap:butt;stroke-linejoin:round;stroke-miterlimit:4;stroke-dasharray:none;stroke-opacity:1" />
            <path
               sodipodi:nodetypes="cccccccccc"
               inkscape:connector-curvature="0"
               id="use103"
               d="m 353.65459,-797.57947 -122.21762,211.66312 -28.53475,-48.37004 32.93837,-56.68747 -65.41521,-0.17187 -13.94166,-24.16966 14.23639,-24.72105 93.11171,0.29401 33.4638,-57.69041 z"
               style="display:inline;fill:url(#linearGradient4328-7);fill-opacity:1;fill-rule:evenodd;stroke:none;stroke-width:3;stroke-linecap:butt;stroke-linejoin:round;stroke-miterlimit:4;stroke-dasharray:none;stroke-opacity:1" />
            <path
               sodipodi:nodetypes="cccccccccc"
               inkscape:connector-curvature="0"
               id="use104"
               d="m 363.03058,-628.3791 244.41444,0.012 -27.6223,48.89684 -65.56198,-0.18174 32.55877,56.73717 -13.96072,24.15867 -28.52725,0.0314 -46.30123,-80.7841 -66.69326,-0.1353 z"
               style="display:inline;fill:url(#linearGradient4328-7);fill-opacity:1;fill-rule:evenodd;stroke:none;stroke-width:3;stroke-linecap:butt;stroke-linejoin:round;stroke-miterlimit:4;stroke-dasharray:none;stroke-opacity:1" />
            <path
               sodipodi:nodetypes="cccccccccc"
               inkscape:connector-curvature="0"
               id="use105"
               d="m 245.78084,-431.49025 -122.19683,-211.67512 56.15706,-0.5268 32.6236,56.8692 32.85645,-56.5653 27.90237,0.011 14.29086,24.6896 -46.81047,80.4901 33.22946,57.8257 z"
               style="display:inline;fill:url(#linearGradient4328-7);fill-opacity:1;fill-rule:evenodd;stroke:none;stroke-width:3;stroke-linecap:butt;stroke-linejoin:round;stroke-miterlimit:4;stroke-dasharray:none;stroke-opacity:1" />
            <path
               style="color:#000000;clip-rule:nonzero;display:inline;overflow:visible;visibility:visible;opacity:1;isolation:auto;mix-blend-mode:normal;color-interpolation:sRGB;color-interpolation-filters:linearRGB;solid-color:#000000;solid-opacity:1;fill:url(#linearGradient114);fill-opacity:1;fill-rule:evenodd;stroke:none;stroke-width:3;stroke-linecap:butt;stroke-linejoin:round;stroke-miterlimit:4;stroke-dasharray:none;stroke-dashoffset:0;stroke-opacity:1;color-rendering:auto;image-rendering:auto;shape-rendering:auto;text-rendering:auto;enable-background:accumulate"
               d="m 364.91054,-660.55868 122.19683,211.67512 -56.15706,0.5268 -32.6236,-56.8692 -32.85645,56.5653 -27.90237,-0.011 -14.29086,-24.6896 46.81047,-80.4901 -33.22946,-57.8256 z"
               id="path105"
               inkscape:connector-curvature="0"
               sodipodi:nodetypes="cccccccccc" />
            <path
               style="color:#000000;clip-rule:nonzero;display:inline;overflow:visible;visibility:visible;isolation:auto;mix-blend-mode:normal;color-interpolation:sRGB;color-interpolation-filters:linearRGB;solid-color:#000000;solid-opacity:1;fill:url(#linearGradient4330-2);fill-opacity:1;fill-rule:evenodd;stroke:none;stroke-width:3.16532;stroke-linecap:butt;stroke-linejoin:round;stroke-miterlimit:4;stroke-dasharray:none;stroke-dashoffset:0;stroke-opacity:1;color-rendering:auto;image-rendering:auto;shape-rendering:auto;text-rendering:auto;enable-background:accumulate"
               d="m 212.55501,-619.87346 -272.095252,-0.012 30.750633,-48.89684 72.9871,0.18174 -36.2461582,-56.73717 15.5418122,-24.15866 31.758064,-0.0314 51.545021,80.78411 74.2464,0.13524 z"
               id="use106"
               inkscape:connector-curvature="0"
               sodipodi:nodetypes="cccccccccc" />
            <path
               style="color:#000000;clip-rule:nonzero;display:inline;overflow:visible;visibility:visible;isolation:auto;mix-blend-mode:normal;color-interpolation:sRGB;color-interpolation-filters:linearRGB;solid-color:#000000;solid-opacity:1;fill:url(#linearGradient4330-2);fill-opacity:1;fill-rule:evenodd;stroke:none;stroke-width:3;stroke-linecap:butt;stroke-linejoin:round;stroke-miterlimit:4;stroke-dasharray:none;stroke-dashoffset:0;stroke-opacity:1;color-rendering:auto;image-rendering:auto;shape-rendering:auto;text-rendering:auto;enable-background:accumulate"
               d="m 523.187,-590.36517 122.21761,-211.66311 28.53475,48.37004 -32.93837,56.68746 65.41521,0.17187 13.94166,24.16966 -14.23639,24.72105 -93.1117,-0.294 -33.46371,57.69035 z"
               id="use107"
               inkscape:connector-curvature="0"
               sodipodi:nodetypes="cccccccccc" />
          </g>
        </g>
        <path
           style="display:none;fill:#cc9a69;fill-opacity:1;stroke:#000000;stroke-width:2.74799;stroke-dasharray:none;stroke-opacity:1"
           d="m 60.527228,113.39665 v 20.09406 l 46.804452,16.96968 44.35396,-15.43811 -1.34777,-20.27785 -42.63861,11.82364 -0.61263,23.7698 0.4901,-24.13738 z"
           id="path108"
           sodipodi:nodetypes="ccccccccc"
           inkscape:label="box-fg" />
      </g>
      <g
         id="g116"
         inkscape:label="headphones"
         transform="translate(0.73514852,4.6559406)">
        <path
           style="fill:#625e71;fill-opacity:1;stroke:#000000;stroke-width:2.74799"
           d="m 56.314754,120.60021 c 0,0 4.505179,-25.298318 45.398356,-25.298318 40.89318,0 45.57163,28.244018 45.57163,28.244018 l -8.31725,0.86638 c 0,0 -0.69311,-24.25867 -37.25438,-24.431943 C 65.15184,99.807072 60.819933,120.77349 60.819933,120.77349 Z"
           id="path115" />
        <path
           style="display:inline;fill:#4d4db2;fill-opacity:1;stroke:#000000;stroke-width:2.74799"
           d="m 59.95355,119.214 c 0,0 -24.085384,-2.42586 -21.832798,14.20865 2.252594,16.63451 2.772421,24.60521 17.154342,24.60521 14.381926,1e-5 10.223298,-35.69488 8.317261,-37.42764 -1.90604,-1.73277 -3.638805,-1.38622 -3.638805,-1.38622 z"
           id="path114" />
        <path
           style="display:inline;fill:#4d4db2;fill-opacity:1;stroke:#000000;stroke-width:2.77878"
           d="m 141.52476,122.27228 c 0,0 24.64762,-2.42394 22.34245,14.19742 -2.30518,16.62136 -2.83714,24.58576 -17.55479,24.58576 -14.71764,1e-5 -10.46194,-35.66666 -8.51141,-37.39806 1.95053,-1.73139 3.72375,-1.38512 3.72375,-1.38512 z"
           id="path114-3" />
        <circle
           style="fill:#625e71;fill-opacity:1;stroke:#000000;stroke-width:2.74799"
           id="path116"
           cx="143.47649"
           cy="129.38614"
           r="2.3279703" />
        <circle
           style="fill:#625e71;fill-opacity:1;stroke:#000000;stroke-width:2.74799"
           id="path116-1"
           cx="58.776428"
           cy="125.66249"
           r="2.3279703" />
      </g>
      <g
         id="g123"
         inkscape:label="waves">
        <path
           style="fill:none;fill-opacity:1;stroke:#000000;stroke-width:1.5;stroke-dasharray:none"
           d="m 154.62624,118.35891 c 0,0 13.96782,-0.9802 17.64356,9.55693"
           id="path117" />
        <path
           style="fill:none;fill-opacity:1;stroke:#ffffff;stroke-width:1.5;stroke-dasharray:none;stroke-opacity:1"
           d="m 153.60421,119.37069 c 0,0 13.96782,-0.9802 17.64356,9.55693"
           id="path117-9" />
        <path
           style="fill:none;fill-opacity:1;stroke:#000000;stroke-width:1.5;stroke-dasharray:none"
           d="m 165.65346,126.20049 c 0,0 8.08664,5.63614 6.61634,16.90842"
           id="path118" />
        <path
           style="fill:none;fill-opacity:1;stroke:#ffffff;stroke-width:1.5;stroke-dasharray:none;stroke-opacity:1"
           d="m 164.6085,127.23139 c 0,0 8.08664,5.63614 6.61634,16.90842"
           id="path118-7" />
        <path
           style="fill:none;fill-opacity:1;stroke:#000000;stroke-width:1.5;stroke-dasharray:none"
           d="m 155.11633,170.06435 c 0,0 14.45793,2.69555 17.15347,-11.76237"
           id="path119" />
        <path
           style="fill:none;fill-opacity:1;stroke:#ffffff;stroke-width:1.5;stroke-dasharray:none;stroke-opacity:1"
           d="m 154.46425,168.87245 c 0,0 14.45793,2.69555 17.15347,-11.76237"
           id="path119-3" />
        <path
           style="fill:none;fill-opacity:1;stroke:#000000;stroke-width:1.5;stroke-dasharray:none"
           d="m 168.10396,146.29455 c 0,0 1.22525,7.10644 -0.9802,14.94802"
           id="path120" />
        <path
           style="fill:none;fill-opacity:1;stroke:#ffffff;stroke-width:1.5;stroke-dasharray:none;stroke-opacity:1"
           d="m 166.74823,146.414 c 0,0 1.22525,7.10644 -0.9802,14.94802"
           id="path120-3" />
        <path
           style="fill:none;fill-opacity:1;stroke:#000000;stroke-width:1.5;stroke-dasharray:none"
           d="m 47.539602,114.43812 c 0,0 -14.702969,5.14604 -15.683166,10.29208"
           id="path121" />
        <path
           style="fill:none;fill-opacity:1;stroke:#ffffff;stroke-width:1.5;stroke-dasharray:none;stroke-opacity:1"
           d="m 48.069274,115.52772 c 0,0 -14.702969,5.14604 -15.683166,10.29208"
           id="path121-0" />
        <path
           style="fill:none;fill-opacity:1;stroke:#000000;stroke-width:1.5;stroke-dasharray:none"
           d="m 38.962872,168.10396 c -1.225248,-3.4307 -10.537129,-13.23267 -7.841586,-23.7698"
           id="path122" />
        <path
           style="fill:none;fill-opacity:1;stroke:#ffffff;stroke-width:1.5;stroke-dasharray:none;stroke-opacity:1"
           d="m 40.417556,167.95956 c -1.225248,-3.4307 -10.537129,-13.23267 -7.841586,-23.7698"
           id="path122-7" />
        <path
           style="fill:none;fill-opacity:1;stroke:#000000;stroke-width:1.5;stroke-dasharray:none"
           d="m 25.975247,130.85644 c 0,0 -9.55693,9.31188 -1.960396,22.54455"
           id="path123" />
        <path
           style="fill:none;fill-opacity:1;stroke:#ffffff;stroke-width:1.5;stroke-dasharray:none;stroke-opacity:1"
           d="m 26.993932,131.08467 c 0,0 -9.55693,9.31188 -1.960396,22.54455"
           id="path123-9" />
      </g>
    </g>
  </g>
</svg>
